<svg xmlns="http://www.w3.org/2000/svg" viewBox="0 0 750 500"><defs><style>.cls-1,.cls-9{fill:#fff;}.cls-2{fill:#e2e8f5;}.cls-10,.cls-11,.cls-12,.cls-13,.cls-14,.cls-15,.cls-16,.cls-17,.cls-18,.cls-19,.cls-2,.cls-20,.cls-21,.cls-22,.cls-23,.cls-24,.cls-25,.cls-28,.cls-29,.cls-3,.cls-30,.cls-34,.cls-37,.cls-38,.cls-39,.cls-40,.cls-41,.cls-42,.cls-43,.cls-44,.cls-7,.cls-8,.cls-9{fill-rule:evenodd;}.cls-3{fill:#bfcce8;}.cls-4{fill:#90a9d5;}.cls-5{fill:#b6c7e6;}.cls-6{fill:#e6e4eb;}.cls-11,.cls-7{fill:#0f1630;}.cls-7{stroke:#0e1632;stroke-miterlimit:22.93;stroke-width:0.22px;}.cls-8{fill:#cec9d0;}.cls-10{fill:#e8685b;}.cls-12{fill:#3d4155;}.cls-13{fill:#545a6c;}.cls-14{fill:#f4ad85;}.cls-15{fill:#ed9072;}.cls-16,.cls-33,.cls-35{fill:#0e1632;}.cls-17{fill:#010518;}.cls-18{fill:#05304b;}.cls-19{fill:#0076bd;}.cls-20{fill:#171c3a;}.cls-21{fill:#c9c4d1;}.cls-22{fill:#1c2344;}.cls-23{fill:#101937;}.cls-24,.cls-32{fill:#383d5d;}.cls-25{fill:#01020e;}.cls-26,.cls-30{fill:#e2e1e7;}.cls-27,.cls-38{fill:#b92f6d;}.cls-28{fill:#e74d91;}.cls-29,.cls-31{fill:#acabbb;}.cls-34{fill:#dff0f2;}.cls-35{font-size:27.66px;font-family:FranklinGothic-Medium, Franklin Gothic Medium;font-weight:500;}.cls-36{letter-spacing:-0.03em;}.cls-37{fill:#004a82;}.cls-39{fill:#a8a6b5;}.cls-40{fill:#96929f;}.cls-41{fill:#f0eef0;}.cls-42{fill:#d2ced6;}.cls-43{fill:#484e6a;}.cls-44{fill:#1a293d;}</style></defs><title>contact-us</title><g id="BACKGROUND"><rect class="cls-1" x="125" width="500" height="500"/><rect class="cls-1" width="750" height="500"/></g><g id="OBJECTS"><path class="cls-2" d="M174.44,323.62h-61a59.91,59.91,0,0,0-59.74,59.74h0a59.91,59.91,0,0,0,59.74,59.73H629.58c53.2,0,96.73-43.53,96.73-96.73h0c0-53.2-43.53-96.73-96.73-96.73h0a41,41,0,0,1-40.9-40.9h0a41,41,0,0,1,40.9-40.9h49.23a42.65,42.65,0,0,0,42.52-42.52h0a42.65,42.65,0,0,0-42.52-42.52H616.56A16.6,16.6,0,0,1,600,66.23h0a16.6,16.6,0,0,1,16.55-16.55h11A11.46,11.46,0,0,0,639,38.25h0a11.46,11.46,0,0,0-11.43-11.42h-72c-15.17,0-16.86,17.91-55.16,17.91H390a15,15,0,0,0-14.91,14.91h0A15,15,0,0,0,390,74.56h14.32a21.66,21.66,0,0,1,21.6,21.6h0a21.66,21.66,0,0,1-21.6,21.6H382.79c-58.18,0-66.4,15.21-76.59,45.45s-63.11,32.68-63.11,32.68H170.72a32.65,32.65,0,0,0-32.56,32.55h0A32.65,32.65,0,0,0,170.72,261h3.72a31.4,31.4,0,0,1,31.31,31.31h0a31.4,31.4,0,0,1-31.31,31.31ZM659.6,49.68A11.43,11.43,0,1,1,671,38.25,11.43,11.43,0,0,1,659.6,49.68Z"/><path class="cls-3" d="M179.58,443.09h5.23V411.33l19.83,19.83-11.93,11.93h4.93l9.47-9.46,9.46,9.46h4.93l-11.93-11.93,19.83-19.83v31.76h5.23V195.89H229.4v6l-6-6h-4.93l11,11v.3l-22.29,22.3-22.3-22.3v-.3l10.95-11h-4.92l-6,6v-6h-5.23v65.54a30.41,30.41,0,0,1,5.23,1.35v-.89l1.44,1.44a31.58,31.58,0,0,1,17.18,17.17l1.21,1.22-.55.55a31.21,31.21,0,0,1,1,3.88l2-2,22.29,22.29v.3l-22.29,22.3-12.69-12.69a31.74,31.74,0,0,1-2.83,2.09l13,13.06-19.83,19.83V321.84a30.41,30.41,0,0,1-5.23,1.35v119.9Zm5.23-41.92V361.52l19.83,19.83-19.83,19.82Zm0-149.44V212.07l19.83,19.83-19.83,19.83Zm44.59-39.66v39.66L209.57,231.9l19.83-19.83Zm0,49.82v39.65l-19.83-19.82,19.83-19.83Zm0,49.81v39.66l-19.83-19.83L229.4,311.7Zm0,49.82v39.65l-19.83-19.82,19.83-19.83ZM184.81,256.66l22.3-22.29,22.29,22.29v.3l-22.29,22.29L184.81,257v-.3Zm0,99.63,22.3-22.3,22.29,22.3v.3l-22.29,22.29-22.3-22.29v-.3Zm0,49.81,22.3-22.29L229.4,406.1v.3l-22.29,22.29-22.3-22.29Z"/><path class="cls-3" d="M545.34,443.09h5.23V411.33l19.83,19.83-11.93,11.93h4.93l9.47-9.46,9.46,9.46h4.93l-11.93-11.93,19.83-19.83v31.76h5.23V237.3a40.86,40.86,0,0,1-5.23-6.55v21L575.33,231.9l14.33-14.32a39.71,39.71,0,0,1-.71-4.23l-16.08,16.09-22.3-22.3v-.3l22.3-22.29,16.54,16.54c.26-1.34.58-2.67,1-4l-15-15,19.83-19.83v24.46a41.38,41.38,0,0,1,5.23-6.56V69.76a16.46,16.46,0,0,1-.38-3.53h0a16.43,16.43,0,0,1,.38-3.52V26.83h-5.23V52.47L575.33,32.64l5.81-5.81h-4.93l-3.34,3.35-3.35-3.35h-4.93l5.81,5.81L550.57,52.47V27.54A22.93,22.93,0,0,0,545.34,30V443.09Zm5.23-41.92V361.52l19.83,19.83-19.83,19.82Zm0-49.81V311.7l19.83,19.83-19.83,19.83Zm0-49.82V261.89l19.83,19.83-19.83,19.82Zm0-49.81V212.07L570.4,231.9l-19.83,19.83Zm0-49.82V162.26l19.83,19.83-19.83,19.82Zm0-49.81V112.44l19.83,19.83L550.57,152.1Zm0-49.82V62.63L570.4,82.46l-19.83,19.82Zm44.59-39.65v39.65L575.33,82.46l19.83-19.83Zm0,49.81V152.1l-19.83-19.83,19.83-19.83Zm0,149.45v39.65l-19.83-19.82,19.83-19.83Zm0,49.81v39.66l-19.83-19.83,19.83-19.83Zm0,49.82v39.65l-19.83-19.82,19.83-19.83ZM550.57,57.4l22.3-22.29L595.16,57.4v.3L572.87,80,550.57,57.7v-.3Zm0,49.81,22.3-22.29,22.29,22.29v.3l-22.29,22.3-22.3-22.3v-.3Zm0,49.82,22.3-22.29L595.16,157v.3l-22.29,22.29-22.3-22.29V157Zm0,99.63,22.3-22.29,22.29,22.29v.3l-22.29,22.29L550.57,257v-.3Zm0,49.81,22.3-22.29,22.29,22.29v.3l-22.29,22.3-22.3-22.3v-.3Zm0,49.82,22.3-22.3,22.29,22.3v.3l-22.29,22.29-22.3-22.29v-.3Zm0,49.81,22.3-22.29,22.29,22.29v.3l-22.29,22.29-22.3-22.29Z"/><path class="cls-3" d="M161.07,323.62h-7.71v9.45l-9.44-9.45h-7.27l16.71,16.71v.44l-32.84,32.85L87.67,340.77v-.44l15.89-15.89A58.81,58.81,0,0,0,93.79,327l-6.12,6.12v-3.59A60,60,0,0,0,80,333.92v98.87a60,60,0,0,0,7.71,4.44V421.44l21.5,21.5q2.1.15,4.23.15h3.19L87.67,414.18v-.45l32.85-32.85,32.84,32.85v.45l-28.91,28.91h7.26l21.65-21.65v21.65h7.71V323.62Zm0-126.26a32.85,32.85,0,0,0-18.33,14.5l10.62-10.62V256a32.64,32.64,0,0,0,7.71,3.58V197.36ZM87.67,406.47V348l29.22,29.21L87.67,406.47ZM153.36,348v58.43l-29.21-29.22Z"/><path class="cls-3" d="M618.9,443.09h7.71V421.44l20.12,20.12c2-.36,4-.8,6-1.29l-26.1-26.09v-.45l32.85-32.85,32.84,32.85v.45l-17.74,17.74A97.67,97.67,0,0,0,700,412.49V280.23a99,99,0,0,0-10.73-9.84l-29.82,29.83-32.85-32.85v-.44L643,250.57c-2.17-.3-4.36-.54-6.57-.69l-9.79,9.79V249.52a40.86,40.86,0,0,1-7.71-1.31V443.09Zm0-273.83a40.87,40.87,0,0,1,7.71-1.32v-40.1l29.21,29.21L645,167.83h7.26l7.16-7.15,7.15,7.15h7.26l-10.78-10.78,29.21-29.21v37.78a42.22,42.22,0,0,0,7.71-3.49V88.49A42.22,42.22,0,0,0,692.3,85v27.86L663.09,83.65l.86-.86h-9l.86.86-29.21,29.21V82.79H618.9v86.47Zm0-119.58h8.63a10.46,10.46,0,0,0,1.49-.1l-2.41-2.41v-.44l11.84-11.84a11.48,11.48,0,0,0-2.71-4.56l-9.13,9.13V26.83H618.9V49.68Zm7.71,356.79V348l29.21,29.21-29.21,29.22Zm0-73.4V274.64l29.21,29.21-29.21,29.22Zm65.69-58.43v58.43l-29.21-29.22,29.21-29.21Zm0,73.4v58.43l-29.21-29.22L692.3,348ZM626.61,120.13l32.85-32.85,32.84,32.85v.44l-32.84,32.85-32.85-32.85v-.44Zm0,220.2,32.85-32.85,32.84,32.85v.44l-32.84,32.85-32.85-32.85Z"/><rect class="cls-4" x="145.89" y="348.01" width="60.28" height="44.79" rx="3.87"/><rect class="cls-5" x="180.36" y="348.01" width="60.28" height="44.79" rx="3.87"/><rect class="cls-4" x="188.84" y="362.81" width="43.32" height="15.21" rx="2.21"/><rect class="cls-6" x="193.36" y="365.39" width="20.09" height="3.32" rx="0.48"/><rect class="cls-6" x="193.36" y="370.64" width="10.41" height="3.32" rx="0.48"/><rect class="cls-4" x="179.52" y="392.81" width="72.24" height="53.68" rx="4.64"/><rect class="cls-5" x="138.21" y="392.81" width="72.23" height="53.68" rx="4.64"/><rect class="cls-4" x="148.37" y="410.54" width="51.91" height="18.22" rx="2.65"/><rect class="cls-6" x="170.8" y="413.63" width="24.08" height="3.98" rx="0.58"/><rect class="cls-6" x="182.39" y="419.92" width="12.48" height="3.98" rx="0.58"/><path class="cls-3" d="M472.22,151.91a17,17,0,1,1-3.69,5.52,17,17,0,0,1,3.69-5.52Zm6.11-2.23a15.41,15.41,0,1,0,16.79,25.13,15.4,15.4,0,0,0,4.51-10.89,15.41,15.41,0,0,0-21.3-14.24Zm-1.88-12.5a27.84,27.84,0,0,0-6.13,2.62,26.71,26.71,0,0,0-2.83,1.88,27.34,27.34,0,0,0-2.59,2.2,1.76,1.76,0,0,1-2.12.26c-2.5-1.44-5.12-2.86-7.56-4.36a1,1,0,0,0-.37-.12,1.12,1.12,0,0,0-.41,0,1,1,0,0,0-.39.18,1,1,0,0,0-.27.31c-1.82,2.75-3.64,6.31-5.33,9.23a1.08,1.08,0,0,0-.1.82,1.23,1.23,0,0,0,.19.38,1,1,0,0,0,.31.27c2.24,1.49,5.13,3,7.51,4.34a1.74,1.74,0,0,1,.86,1.21l.16.06-.18.7c-.13.55-.25,1.1-.35,1.65s-.19,1.09-.26,1.67-.12,1.13-.15,1.69-.05,1.12-.05,1.71,0,1.16.05,1.7.08,1.13.15,1.69.16,1.15.26,1.68.22,1.1.35,1.65a1.67,1.67,0,0,1-.11,1.17,1.76,1.76,0,0,1-.8.84l-6.65,3.84h0l-.79.45a1.19,1.19,0,0,0-.31.28,1.09,1.09,0,0,0-.22.81,1.12,1.12,0,0,0,.13.39l4.93,8.54h0l.4.69a1,1,0,0,0,.27.32,1.15,1.15,0,0,0,.39.18,1,1,0,0,0,.42,0,1,1,0,0,0,.39-.13c2.38-1.5,5.07-2.92,7.53-4.34a1.82,1.82,0,0,1,1.1-.23,1.8,1.8,0,0,1,1,.48h0a26,26,0,0,0,2.59,2.21,28.34,28.34,0,0,0,2.83,1.88,29.33,29.33,0,0,0,3,1.51,30.07,30.07,0,0,0,3.19,1.13,1.85,1.85,0,0,1,.93.63,1.8,1.8,0,0,1,.36,1.08v8.68a1.15,1.15,0,0,0,.08.41,1.56,1.56,0,0,0,.24.35,1,1,0,0,0,.35.23,1.07,1.07,0,0,0,.41.08h10.65a1.15,1.15,0,0,0,.41-.08,1,1,0,0,0,.35-.23,1.24,1.24,0,0,0,.23-.35,1,1,0,0,0,.08-.41v-8.68a1.75,1.75,0,0,1,.39-1.1,1.82,1.82,0,0,1,1-.64,26.43,26.43,0,0,0,3.13-1.11,27.22,27.22,0,0,0,3-1.5,29.54,29.54,0,0,0,2.83-1.88,27.22,27.22,0,0,0,2.59-2.21,1.8,1.8,0,0,1,2.21-.2l7.43,4.29a1,1,0,0,0,.39.13,1,1,0,0,0,.43,0,1,1,0,0,0,.38-.18,1.24,1.24,0,0,0,.28-.32c1.76-3.08,3.56-6.14,5.32-9.22a1,1,0,0,0,.14-.39,1.26,1.26,0,0,0,0-.43,1,1,0,0,0-.18-.38,1.19,1.19,0,0,0-.31-.28l-7.52-4.34a1.79,1.79,0,0,1-.75-.84,2.29,2.29,0,0,1-.09-.28l-.2,0,.2-.8q.21-.82.36-1.65c.1-.53.18-1.09.25-1.68s.12-1.13.16-1.69,0-1.11,0-1.7,0-1.16,0-1.71-.09-1.12-.16-1.69-.16-1.15-.25-1.68-.22-1.09-.36-1.64a1.77,1.77,0,0,1,.91-2l7.45-4.3a1,1,0,0,0,.31-.27,1,1,0,0,0,.18-.38,1.28,1.28,0,0,0,0-.43.92.92,0,0,0-.14-.39c-1.81-2.71-3.64-6.32-5.32-9.23a1.19,1.19,0,0,0-.28-.31,1,1,0,0,0-.38-.18,1.26,1.26,0,0,0-.43,0,1,1,0,0,0-.39.14l-7.52,4.34a1.69,1.69,0,0,1-1.13.22,1.76,1.76,0,0,1-1-.5,27.7,27.7,0,0,0-8.42-5.57,27.84,27.84,0,0,0-3.18-1.13,1.73,1.73,0,0,1-.93-.64,1.77,1.77,0,0,1-.36-1.07v-8.68a.94.94,0,0,0-.08-.41,1,1,0,0,0-.58-.58,1,1,0,0,0-.41-.08H478.9a.91.91,0,0,0-.41.08,1,1,0,0,0-.35.23,1.07,1.07,0,0,0-.32.76v8.68a1.75,1.75,0,0,1-.38,1.1,1.81,1.81,0,0,1-1,.63Zm-3.74-.33a29.47,29.47,0,0,0-3.18,1.59,29.52,29.52,0,0,0-5.72,4.31.23.23,0,0,1-.12.06.31.31,0,0,1-.13,0c-2.53-1.46-5.06-2.91-7.58-4.38a2.77,2.77,0,0,0-1-.3,2.58,2.58,0,0,0-1,.08,2.77,2.77,0,0,0-.93.45,2.7,2.7,0,0,0-.68.78c-1.83,3-3.57,6.18-5.32,9.22a2.59,2.59,0,0,0-.27,2,2.79,2.79,0,0,0,.46.93,2.7,2.7,0,0,0,.78.68c2.41,1.49,5,2.91,7.51,4.34a.22.22,0,0,1,.09.1.29.29,0,0,1,0,.13l-.17.7h0c-.08.34-.15.68-.21,1-.11.61-.21,1.2-.28,1.78s-.12,1.17-.16,1.78-.05,1.21-.05,1.8,0,1.18.05,1.8.09,1.2.16,1.78.17,1.17.28,1.77.23,1.18.37,1.75a.2.2,0,0,1,0,.13.24.24,0,0,1-.1.1c-2.76,1.48-5.56,3.21-8.29,4.79l.09.12-.08.11a2.7,2.7,0,0,0-.46.93,2.59,2.59,0,0,0,.27,2l5.72,9.91.1-.06.18.14a2.61,2.61,0,0,0,.93.46,2.74,2.74,0,0,0,1,.07,2.55,2.55,0,0,0,.95-.32c2.51-1.32,5.08-2.93,7.56-4.36a.23.23,0,0,1,.12,0,.23.23,0,0,1,.12.06,31.69,31.69,0,0,0,2.73,2.33,30.26,30.26,0,0,0,3,2,28.94,28.94,0,0,0,3.2,1.6,28.09,28.09,0,0,0,3.37,1.2.26.26,0,0,1,.11.07.2.2,0,0,1,0,.13v8.68a2.67,2.67,0,0,0,.2,1,2.83,2.83,0,0,0,.58.86,2.64,2.64,0,0,0,.86.57,2.61,2.61,0,0,0,1,.21h10.65a2.64,2.64,0,0,0,1-.21,2.75,2.75,0,0,0,.86-.57,2.64,2.64,0,0,0,.57-.86,2.68,2.68,0,0,0,.21-1v-8.68a.18.18,0,0,1,0-.13.25.25,0,0,1,.12-.08h0a29.33,29.33,0,0,0,6.52-2.77,32.4,32.4,0,0,0,3-2,28.7,28.7,0,0,0,2.72-2.34.21.21,0,0,1,.13-.05.16.16,0,0,1,.13,0l7.52,4.34a2.53,2.53,0,0,0,1,.33,2.76,2.76,0,0,0,1-.07,2.61,2.61,0,0,0,.93-.46,2.51,2.51,0,0,0,.66-.75c2-3.17,3.84-6.65,5.73-9.91l-.1-.06c0-.09,0-.17,0-.25a2.66,2.66,0,0,0-.53-2,2.41,2.41,0,0,0-.77-.68l-7.52-4.34a.25.25,0,0,1-.08-.1.22.22,0,0,1,0-.14l.19-.79h0c.07-.31.13-.63.19-.95q.17-.9.27-1.77c.07-.58.13-1.17.16-1.78s.06-1.22.06-1.8,0-1.19-.06-1.8-.09-1.21-.16-1.79-.16-1.16-.27-1.77-.24-1.18-.37-1.74a.17.17,0,0,1,0-.14.24.24,0,0,1,.1-.1l7.5-4.33a2.7,2.7,0,0,0,.78-.68,2.77,2.77,0,0,0,.45-.93,2.55,2.55,0,0,0,.07-1,2.66,2.66,0,0,0-.32-1c-1.79-3.31-3.84-6.65-5.73-9.93l-.11.06-.17-.15a2.77,2.77,0,0,0-.93-.45,2.55,2.55,0,0,0-1-.07,2.63,2.63,0,0,0-1,.32l-.56.32h0l-7,4a.21.21,0,0,1-.13,0,.23.23,0,0,1-.12-.06l0,0a30.49,30.49,0,0,0-2.72-2.32,31.33,31.33,0,0,0-3-2,27.88,27.88,0,0,0-3.19-1.59,28.72,28.72,0,0,0-3.37-1.2.18.18,0,0,1-.11-.07.17.17,0,0,1,0-.13v-8.68a2.64,2.64,0,0,0-.21-1,2.54,2.54,0,0,0-.57-.86,2.75,2.75,0,0,0-.86-.57,2.47,2.47,0,0,0-1-.21H478.9a2.44,2.44,0,0,0-1,.21,2.64,2.64,0,0,0-1.64,2.44v8.68a.25.25,0,0,1,0,.13.19.19,0,0,1-.12.07l0,0A29.41,29.41,0,0,0,472.71,136.85Z"/><path class="cls-3" d="M32.18,237a17,17,0,1,1-3.69,5.52A16.77,16.77,0,0,1,32.18,237Zm6.11-2.23a15.39,15.39,0,0,0-5,25.13,15.39,15.39,0,0,0,21.79,0,15.4,15.4,0,0,0,4.51-10.89,15.4,15.4,0,0,0-9.51-14.24,15.44,15.44,0,0,0-11.79,0Zm-1.88-12.5a27.84,27.84,0,0,0-6.13,2.62,26.62,26.62,0,0,0-2.83,1.87A29,29,0,0,0,24.86,229a1.76,1.76,0,0,1-2.12.26c-2.5-1.44-5.12-2.86-7.56-4.36a1,1,0,0,0-.37-.12,1.49,1.49,0,0,0-.42,0A1.23,1.23,0,0,0,14,225a1,1,0,0,0-.27.31c-1.82,2.75-3.64,6.31-5.33,9.22a1.17,1.17,0,0,0-.13.4,1,1,0,0,0,0,.42,1.18,1.18,0,0,0,.19.39,1.16,1.16,0,0,0,.31.27c2.24,1.48,5.13,3,7.51,4.34a1.74,1.74,0,0,1,.86,1.21l.16.05-.18.71c-.13.55-.25,1.1-.35,1.65s-.19,1.09-.26,1.67-.12,1.13-.15,1.69,0,1.11,0,1.71,0,1.16,0,1.7.09,1.12.15,1.69.16,1.14.26,1.68.22,1.1.35,1.65a1.67,1.67,0,0,1-.11,1.17,1.81,1.81,0,0,1-.8.84L9.6,261.62h0l-.79.45a1.11,1.11,0,0,0-.53,1.09,1.12,1.12,0,0,0,.13.39l4.93,8.53h0l.4.69a.91.91,0,0,0,.27.31,1.23,1.23,0,0,0,.38.19,1.06,1.06,0,0,0,.43,0,1.12,1.12,0,0,0,.39-.13c2.38-1.5,5.07-2.93,7.53-4.34a1.81,1.81,0,0,1,1.1-.23,1.83,1.83,0,0,1,1,.48h0a26,26,0,0,0,2.59,2.21,28.34,28.34,0,0,0,2.83,1.88,29.33,29.33,0,0,0,3,1.51,28,28,0,0,0,3.19,1.12,1.79,1.79,0,0,1,1.29,1.72v8.68a1.06,1.06,0,0,0,.08.4,1.21,1.21,0,0,0,.24.35.92.92,0,0,0,.35.24,1.07,1.07,0,0,0,.41.08H49.51a1.15,1.15,0,0,0,.41-.08,1,1,0,0,0,.35-.23,1.16,1.16,0,0,0,.23-.36,1.06,1.06,0,0,0,.08-.4v-8.68A1.8,1.8,0,0,1,52,275.78a26.43,26.43,0,0,0,3.13-1.11,29.1,29.1,0,0,0,3-1.5,29.54,29.54,0,0,0,2.83-1.88,27.22,27.22,0,0,0,2.59-2.21,1.8,1.8,0,0,1,2.21-.2l7.43,4.29a1,1,0,0,0,.39.13,1.09,1.09,0,0,0,.81-.22.93.93,0,0,0,.28-.31c1.76-3.08,3.56-6.14,5.32-9.22a1.14,1.14,0,0,0,.14-.39,1.26,1.26,0,0,0,0-.43,1,1,0,0,0-.18-.38,1,1,0,0,0-.31-.28L72,257.73a1.79,1.79,0,0,1-.75-.84,1.52,1.52,0,0,1-.09-.28l-.2,0,.2-.8q.21-.83.36-1.65c.1-.53.18-1.09.25-1.68s.12-1.13.16-1.69,0-1.11,0-1.7,0-1.17,0-1.71-.09-1.12-.16-1.69-.16-1.15-.25-1.68-.22-1.09-.36-1.64a1.77,1.77,0,0,1,.91-2l7.45-4.3a1.14,1.14,0,0,0,.31-.27,1,1,0,0,0,.18-.39,1,1,0,0,0-.1-.82c-1.82-2.7-3.64-6.31-5.32-9.22a1.14,1.14,0,0,0-.66-.5,1.25,1.25,0,0,0-.43,0,1,1,0,0,0-.39.14l-7.52,4.34a1.82,1.82,0,0,1-1.13.22,1.76,1.76,0,0,1-1-.5,26.88,26.88,0,0,0-2.57-2.2,28.62,28.62,0,0,0-2.82-1.86,26.73,26.73,0,0,0-3-1.51,27.84,27.84,0,0,0-3.18-1.13,1.73,1.73,0,0,1-.93-.64,1.77,1.77,0,0,1-.36-1.07V211.9a1.07,1.07,0,0,0-.08-.41,1,1,0,0,0-.23-.35,1.21,1.21,0,0,0-.35-.24,1.15,1.15,0,0,0-.41-.08H38.86a1.07,1.07,0,0,0-.41.08,1.21,1.21,0,0,0-.35.24,1.07,1.07,0,0,0-.32.76v8.68a1.77,1.77,0,0,1-.38,1.1,1.81,1.81,0,0,1-1,.63ZM32.67,222a29.47,29.47,0,0,0-3.18,1.59,29.52,29.52,0,0,0-5.72,4.31.23.23,0,0,1-.12.06.31.31,0,0,1-.13,0c-2.53-1.46-5.06-2.91-7.58-4.38a2.77,2.77,0,0,0-.95-.3,2.58,2.58,0,0,0-1,.08,2.77,2.77,0,0,0-.93.45,2.7,2.7,0,0,0-.68.78c-1.83,3-3.57,6.18-5.33,9.22a2.91,2.91,0,0,0-.33,1,2.74,2.74,0,0,0,.07,1A2.68,2.68,0,0,0,8,237.38c2.42,1.49,5.05,2.91,7.52,4.34a.22.22,0,0,1,.09.1.29.29,0,0,1,0,.13l-.18.7h0c-.08.34-.15.69-.21,1-.11.6-.21,1.2-.28,1.78s-.12,1.17-.16,1.78-.05,1.21-.05,1.8,0,1.18.05,1.79.09,1.21.16,1.79.17,1.17.28,1.77.23,1.18.37,1.74a.22.22,0,0,1,0,.14.19.19,0,0,1-.1.1c-2.76,1.48-5.56,3.21-8.29,4.79l.09.12-.08.11a2.66,2.66,0,0,0-.53,2,2.73,2.73,0,0,0,.34,1l5.72,9.91.1-.07a1.19,1.19,0,0,0,.18.15,2.79,2.79,0,0,0,.93.46,2.74,2.74,0,0,0,1,.07,2.55,2.55,0,0,0,1-.32c2.51-1.33,5.08-2.93,7.56-4.36a.16.16,0,0,1,.12,0,.23.23,0,0,1,.12.06,29.89,29.89,0,0,0,2.73,2.32,29.56,29.56,0,0,0,6.19,3.58,26.41,26.41,0,0,0,3.37,1.19.28.28,0,0,1,.11.08.2.2,0,0,1,0,.13v8.68a2.67,2.67,0,0,0,.2,1,2.78,2.78,0,0,0,.58.86,2.54,2.54,0,0,0,.86.57,2.6,2.6,0,0,0,1,.2H49.51a2.67,2.67,0,0,0,1-.2A2.6,2.6,0,0,0,52,287.21a2.68,2.68,0,0,0,.21-1v-8.68a.17.17,0,0,1,0-.13.2.2,0,0,1,.12-.08h0a28.25,28.25,0,0,0,3.35-1.19,26.81,26.81,0,0,0,3.17-1.59,27.64,27.64,0,0,0,3-2,26.25,26.25,0,0,0,2.73-2.33.31.31,0,0,1,.13-.06.22.22,0,0,1,.13,0l7.52,4.34a2.73,2.73,0,0,0,1,.33,2.79,2.79,0,0,0,1-.07,2.65,2.65,0,0,0,.92-.46,2.41,2.41,0,0,0,.67-.75c2-3.18,3.84-6.65,5.73-9.91l-.1-.06c0-.09,0-.17,0-.26a2.74,2.74,0,0,0-.07-1,2.49,2.49,0,0,0-.46-.92,2.41,2.41,0,0,0-.77-.68l-7.52-4.34a.25.25,0,0,1-.08-.1.22.22,0,0,1,0-.14l.19-.79h0c.07-.3.13-.62.19-.94q.16-.9.27-1.77c.07-.58.13-1.17.16-1.79s.06-1.21.06-1.79,0-1.19-.06-1.8-.09-1.21-.16-1.79-.16-1.16-.27-1.77-.24-1.18-.38-1.74a.24.24,0,0,1,0-.14.19.19,0,0,1,.1-.1l7.5-4.33a2.7,2.7,0,0,0,.78-.68,2.77,2.77,0,0,0,.45-.93,2.74,2.74,0,0,0,.07-1,2.66,2.66,0,0,0-.32-1c-1.79-3.31-3.84-6.65-5.73-9.93l-.11.06-.18-.15a2.63,2.63,0,0,0-.92-.45,2.56,2.56,0,0,0-1-.07,2.63,2.63,0,0,0-1,.32l-.56.32h0l-7,4a.21.21,0,0,1-.13,0,.23.23,0,0,1-.12-.06l0,0a28.92,28.92,0,0,0-2.72-2.32A30,30,0,0,0,55.68,222a30.61,30.61,0,0,0-3.37-1.19.18.18,0,0,1-.11-.07.17.17,0,0,1,0-.13V211.9a2.61,2.61,0,0,0-.21-1,2.42,2.42,0,0,0-.58-.86,2.79,2.79,0,0,0-.85-.58,2.67,2.67,0,0,0-1-.2H38.86a2.6,2.6,0,0,0-1,.2A2.72,2.72,0,0,0,37,210a2.64,2.64,0,0,0-.78,1.87v8.68a.28.28,0,0,1,0,.13.19.19,0,0,1-.12.07h0A32.14,32.14,0,0,0,32.67,222Z"/><path class="cls-3" d="M98.26,287.2ZM102,272.94A7.21,7.21,0,1,1,99.89,278a7.19,7.19,0,0,1,2.11-5.09Zm1.56-7.15a12.7,12.7,0,0,0-2.83,1.21,12.5,12.5,0,0,0-2.47,1.86.46.46,0,0,1-.53.07L94.38,267h0a.86.86,0,0,0-.61-.07.81.81,0,0,0-.5.39l0,0-2.35,4.08a.79.79,0,0,0-.08.63.81.81,0,0,0,.38.51h0l3.33,1.92a.44.44,0,0,1,.2.49h0a14.59,14.59,0,0,0-.28,1.52,13.39,13.39,0,0,0,0,3.1,15.29,15.29,0,0,0,.28,1.53.43.43,0,0,1-.23.5l-3.32,1.92h0a.76.76,0,0,0-.38.5.78.78,0,0,0,.08.63l2.37,4.11h0a.83.83,0,0,0,.5.38.87.87,0,0,0,.63-.08h0l3.33-1.92a.45.45,0,0,1,.53.06,12.54,12.54,0,0,0,2.47,1.87,12.86,12.86,0,0,0,2.85,1.21.44.44,0,0,1,.32.42v3.86a.82.82,0,0,0,.83.83h4.74a.81.81,0,0,0,.58-.24.84.84,0,0,0,.25-.59V290.7a.44.44,0,0,1,.34-.43,12.69,12.69,0,0,0,5.3-3.07.44.44,0,0,1,.55-.05l3.33,1.92a.83.83,0,0,0,1.13-.3v0l2.36-4.08h0a.82.82,0,0,0,.08-.63.8.8,0,0,0-.38-.5l-3.35-1.94a.45.45,0,0,1-.21-.48h0a12.89,12.89,0,0,0,.28-1.53,13,13,0,0,0,.1-1.55,13.16,13.16,0,0,0-.1-1.55,12.37,12.37,0,0,0-.28-1.52.45.45,0,0,1,.24-.51l3.32-1.91a.84.84,0,0,0,.38-.51.83.83,0,0,0-.08-.63v0L121,267.3h0a.84.84,0,0,0-.5-.39.86.86,0,0,0-.63.08h0l-3.35,1.94a.44.44,0,0,1-.54-.08,12.89,12.89,0,0,0-5.31-3.06.45.45,0,0,1-.32-.43V261.5a.84.84,0,0,0-.25-.59.81.81,0,0,0-.58-.24h-4.74a.82.82,0,0,0-.83.83v3.86A.44.44,0,0,1,103.56,265.79Z"/><path class="cls-3" d="M253.22,166.61a1.24,1.24,0,1,0-2.47,0v2.9h-2.9a1.24,1.24,0,1,0,0,2.47h2.9v2.91a1.24,1.24,0,1,0,2.47,0V172h2.91a1.24,1.24,0,1,0,0-2.47h-2.91Z"/><path class="cls-3" d="M329.1,86.26ZM332.85,72a7.21,7.21,0,1,1-2.11,5.09A7.14,7.14,0,0,1,332.85,72Zm1.56-7.15a12.7,12.7,0,0,0-2.83,1.21,13.28,13.28,0,0,0-2.48,1.86.43.43,0,0,1-.52.07l-3.35-1.93,0,0a.84.84,0,0,0-1.12.32v0l-2.36,4.08a.88.88,0,0,0-.08.63.86.86,0,0,0,.39.51h0l3.32,1.92a.43.43,0,0,1,.21.49h0a12.37,12.37,0,0,0-.28,1.52,13.48,13.48,0,0,0,0,3.11,12.73,12.73,0,0,0,.28,1.52.44.44,0,0,1-.23.5L322,82.59h0a.84.84,0,0,0-.39.5.86.86,0,0,0,.08.63l2.37,4.11h0a.84.84,0,0,0,.51.38.79.79,0,0,0,.63-.08h0l3.33-1.92a.44.44,0,0,1,.52.06,12.76,12.76,0,0,0,5.32,3.08.44.44,0,0,1,.33.42v3.87a.83.83,0,0,0,.24.58.83.83,0,0,0,.58.25h4.75a.83.83,0,0,0,.58-.25.83.83,0,0,0,.24-.58V89.76a.45.45,0,0,1,.34-.43,12.23,12.23,0,0,0,2.83-1.2,12.91,12.91,0,0,0,2.48-1.87.45.45,0,0,1,.55-.05l3.32,1.92a.79.79,0,0,0,.63.08.84.84,0,0,0,.51-.38v0l2.36-4.08h0a.87.87,0,0,0,.08-.63.84.84,0,0,0-.39-.5l-3.34-1.93a.44.44,0,0,1-.21-.49h0a12.37,12.37,0,0,0,.28-1.52,13.48,13.48,0,0,0,0-3.11,12.37,12.37,0,0,0-.28-1.52.44.44,0,0,1,.23-.5l3.32-1.92a.83.83,0,0,0,.39-.51.84.84,0,0,0-.08-.62l0,0-2.35-4.08h0a.86.86,0,0,0-.51-.39.83.83,0,0,0-.63.09h0L347.31,68a.44.44,0,0,1-.53-.07,12.79,12.79,0,0,0-2.47-1.86,13,13,0,0,0-2.84-1.21.45.45,0,0,1-.33-.43V60.56a.81.81,0,0,0-.24-.58.83.83,0,0,0-.58-.25h-4.75A.83.83,0,0,0,335,60a.81.81,0,0,0-.24.58v3.86A.44.44,0,0,1,334.41,64.85Z"/><path class="cls-3" d="M734.44,53.69a1.24,1.24,0,0,0-2.47,0V56.6h-2.9a1.24,1.24,0,1,0,0,2.47H732V62a1.24,1.24,0,0,0,2.47,0V59.07h2.91a1.24,1.24,0,1,0,0-2.47h-2.91Z"/><path class="cls-3" d="M13.94,376.15a1.24,1.24,0,0,0-2.47,0v2.91H8.57a1.24,1.24,0,1,0,0,2.47h2.9v2.91a1.24,1.24,0,1,0,2.47,0v-2.91h2.91a1.24,1.24,0,1,0,0-2.47H13.94Z"/><path class="cls-3" d="M408,151.64Zm3.75-14.26a7.21,7.21,0,0,1,12.3,5.09,7.21,7.21,0,1,1-14.41,0,7.14,7.14,0,0,1,2.11-5.09Zm1.55-7.15a12.63,12.63,0,0,0-2.82,1.21A13,13,0,0,0,408,133.3a.46.46,0,0,1-.53.07l-3.35-1.94h0a.89.89,0,0,0-.62-.07.84.84,0,0,0-.5.39v0l-2.36,4.08a.84.84,0,0,0,.31,1.14h0l3.32,1.92a.46.46,0,0,1,.21.49h0a12.37,12.37,0,0,0-.28,1.52,13.48,13.48,0,0,0,0,3.11,12.73,12.73,0,0,0,.28,1.52.44.44,0,0,1-.24.5L400.92,148h0a.8.8,0,0,0-.39.5.82.82,0,0,0,.08.63l2.37,4.11h0a.83.83,0,0,0,1.13.3h0l3.32-1.92a.45.45,0,0,1,.53.06,12.61,12.61,0,0,0,2.48,1.87,12.78,12.78,0,0,0,2.84,1.21.43.43,0,0,1,.32.42V159a.83.83,0,0,0,.25.58.81.81,0,0,0,.58.24h4.74A.82.82,0,0,0,420,159v-3.87a.45.45,0,0,1,.34-.43,12.68,12.68,0,0,0,2.83-1.2,12.54,12.54,0,0,0,2.47-1.87.44.44,0,0,1,.55,0l3.33,1.92a.82.82,0,0,0,.63.08.8.8,0,0,0,.5-.38l0,0,2.35-4.08h0a.83.83,0,0,0,.09-.63.84.84,0,0,0-.39-.5L429.42,146a.44.44,0,0,1-.21-.49h0a15.09,15.09,0,0,0,.28-1.52,13.48,13.48,0,0,0,0-3.11,14.59,14.59,0,0,0-.28-1.52.45.45,0,0,1,.23-.51l3.32-1.91a.86.86,0,0,0,.39-.51.83.83,0,0,0-.09-.63v0l-2.36-4.08h0a.81.81,0,0,0-.5-.39.87.87,0,0,0-.63.08h0l-3.35,1.94a.44.44,0,0,1-.54-.08,13.09,13.09,0,0,0-2.46-1.85,12.4,12.4,0,0,0-2.85-1.21.45.45,0,0,1-.32-.43v-3.86a.82.82,0,0,0-.83-.83h-4.74a.81.81,0,0,0-.58.24.84.84,0,0,0-.25.59v3.86A.43.43,0,0,1,413.3,130.23Z"/><path class="cls-3" d="M363,133.23a1.24,1.24,0,1,0-2.47,0v2.9h-2.91a1.24,1.24,0,0,0,0,2.47h2.91v2.91a1.24,1.24,0,1,0,2.47,0V138.6h2.91a1.24,1.24,0,0,0,0-2.47H363Z"/><path class="cls-3" d="M368.06,270.1a1.24,1.24,0,0,0-2.47,0V273h-2.91a1.24,1.24,0,0,0,0,2.47h2.91v2.91a1.24,1.24,0,1,0,2.47,0v-2.91H371a1.24,1.24,0,0,0,0-2.47h-2.91Z"/><path class="cls-3" d="M259.73,208.8a1.24,1.24,0,0,0-2.47,0v2.91h-2.9a1.24,1.24,0,1,0,0,2.47h2.9v2.91a1.24,1.24,0,0,0,2.47,0v-2.91h2.91a1.24,1.24,0,1,0,0-2.47h-2.91Z"/><path class="cls-3" d="M670.62,201.49a1.24,1.24,0,1,0-2.47,0v2.9h-2.9a1.24,1.24,0,0,0,0,2.48h2.9v2.9a1.24,1.24,0,1,0,2.47,0v-2.9h2.91a1.24,1.24,0,0,0,0-2.48h-2.91Z"/><path class="cls-7" d="M489.32,292.66a32,32,0,0,1,13.17,9.49c3.29,4,43.48,81,46.06,86s2.57,17.69-3.52,25.48c-2.36,3-9.15,11.51-16.58,20.74H504.37c8.74-13.11,20.16-30.27,21-31.65,1.33-2.26,2-4.44-.44-8.25s-34.61-43-34.61-43S474.48,307.21,489.32,292.66Z"/><path class="cls-8" d="M447.05,286.46s40.53,5.76,42.27,6.2,4.71,4.51,6.3,7.26,3.47,42.3,4.38,53.38-2.67,59.36-1.6,72.33c.17,2.15.5,5.18.93,8.73H378.11c-1.55-14.34-12.36-59.21-13.25-70-.9-11.08-5.5-50.41-4.37-53.38s3.38-7.48,5-8.19,41.17-13,41.17-13L427,292Z"/><path class="cls-9" d="M447.05,286.46l6.7,1a5.77,5.77,0,0,1-1.39,2.75c-15.74,18.05-31.83,19.36-50.3,4.12a5.86,5.86,0,0,1-1.83-2.5l6.46-2L427,292Z"/><path class="cls-10" d="M440,247.43l.34,10.09s1.69,20.59,1.95,23.71c.12,1.51,1.87,3.57,4.79,5.24-13.24,15.18-24.81,16.13-40.36,3.3,2.62-2.12,4-4.43,3.89-5.94-.26-3.13-1.95-23.71-1.95-23.71l-1.3-10s8.14.63,16.57,1.77C432,249.38,440,247.43,440,247.43Z"/><path class="cls-11" d="M450.4,286.94s-4.68,20.25-5,24.37-5.85,45.61-5.28,52.62c.26,3.19,6.6,35.61,13.5,70.43H508.8c-1.35-8.48-2.51-15.8-3.14-19.93-2.24-14.86-3.75-45.74-3.26-64.81s-4.25-47.69-4.81-50.41-6-6.11-7.65-6.74Z"/><path class="cls-12" d="M444.36,320c-1.66,13.67-4.7,38.65-4.27,43.95,0,0,26.86-29.23,26.45-32.12s-11.33-24.39-11.33-24.39S450.51,312.82,444.36,320Z"/><path class="cls-13" d="M449.06,286.75s1.18-1.06,1.61-1.1,7.71,2.43,7.71,2.43,10.63,16.71,10.8,18.85-26.1,23.63-26.1,23.63l2.33-19.66s3.81-19.21,5-24Z"/><path class="cls-11" d="M366,302.76a32.18,32.18,0,0,0-11.45,11.52c-2.59,4.47-29.7,87-31.43,92.34s.33,17.87,7.61,24.57l3.49,3.17h30.05c-8-8.53-15.16-16.28-15.89-17.15-1.69-2-2.71-4-.92-8.21s27.15-48.1,27.15-48.1S383,314.7,366,302.76Z"/><path class="cls-11" d="M403.46,290.79S411.38,310,412.4,314s13.2,44,13.77,51.05c.26,3.12-.67,34.74-1.77,69.29H369.78c0-3.6,0-6.63-.08-8.79-.21-15-3.75-45.74-7.34-64.48s-3.57-47.74-3.46-50.51,4.91-7,6.46-7.9Z"/><path class="cls-12" d="M414.81,322.4c3.86,13.22,10.93,37.37,11.36,42.67,0,0-31.25-24.47-31.32-27.38s7.21-25.91,7.21-25.91S407.57,316.34,414.81,322.4Z"/><path class="cls-13" d="M404.76,290.38a5.77,5.77,0,0,0-1.77-.82c-.42,0-7.21,3.65-7.21,3.65s-7.77,18.22-7.59,20.35,29.6,19.07,29.6,19.07l-5.5-19s-6.89-18.33-8.83-22.82Z"/><path class="cls-10" d="M389.88,253.58l-.6.16h0a8.35,8.35,0,1,0,7.08,1c.44,2.43.32,5.5-2.78,6.09l-.34-4.8A2.87,2.87,0,0,0,389.88,253.58Z"/><path class="cls-10" d="M449.79,248.11l.62,0h0a8.34,8.34,0,1,1-6.78,2.3c0,2.47.68,5.47,3.83,5.49l-.52-4.78A2.86,2.86,0,0,1,449.79,248.11Z"/><path class="cls-14" d="M416.05,209.38h0a28.63,28.63,0,0,0-25.83,31l2.36,25.86a28.63,28.63,0,0,0,31,25.83h0a28.62,28.62,0,0,0,25.82-31l-2.35-25.85A28.63,28.63,0,0,0,416.05,209.38Z"/><path class="cls-15" d="M392,227.67a28.22,28.22,0,0,0-1.76,12.72l2.36,25.86a28.63,28.63,0,0,0,28.3,25.94c-16.52-1.27-19.58-20.8-20.84-31.08s2.59-12.59,4.12-13.1,25.52-4.49,30.83-5.1,8,2.33,8,2.33L445.2,242l-2.14-6.94s1.83.06,4,0a28.83,28.83,0,0,0-1.05-5.37,44.84,44.84,0,0,1-9.37-4.23c-6.33-4.09-36.56,1-41.46,1A7.68,7.68,0,0,0,392,227.67Z"/><path class="cls-16" d="M445.3,248.92s.17,1.9.34,3.67,2,3.58,3.33,3.46l-.37-4a4,4,0,0,1,3.95-3.33c10-13.88,6.68-34.17-6.23-43.66s-38.62-7.84-43-5.94S395.1,209,395.1,209s-4.11-3-7.48-1-13.14,25.42-12.64,31,12.29,15.6,12.29,15.6a4,4,0,0,1,4.49,2.57l.36,4c1.35-.12,2.81-2.24,2.65-4l-.33-3.67.37-.21c3.45-2.24,2.77-9.08,2.77-9.08l-3.18-4.45,6.3-8.29,7.26-2.39,16.48.64s19.43,2.41,17.73,8.07S445.3,248.92,445.3,248.92Z"/><path class="cls-17" d="M445.3,248.92c.2,2.18,1.66,11.91,4.19,11.68,7.56-15.93,14.54-32.55,3.28-48.86-1.32,10.49-11.78,16.9-22.25,19.1,5.54,1.21,12.71,3.48,11.65,7-1.7,5.65,3.13,11.07,3.13,11.07Zm-69.59-14.75a16.9,16.9,0,0,0-.73,4.89c.4,4.28,14.67,25,17.84,29.7,1.65-.15,1.87-12.42,1.62-15.2l.37-.21c3.45-2.24,2.77-9.08,2.77-9.08l-3.18-4.45,6.3-8.29,6.92-2.28c-3.48-1.4-4.49-2.88-4.49-2.88C388.83,240.84,380.53,240.05,375.71,234.17Z"/><path class="cls-16" d="M387.5,249.37S375.55,223.45,399.6,219c0,0,6.36-12.57,19.12-9.42s20.73,3.06,26.45-2.57c0,0,3.28,6.17-.7,11.57,12.07,9.37,7.88,21.38,2.94,27.86-2-13.43-37.37,1.52-42-11.39C405,247.41,392,244.34,387.5,249.37Z"/><path class="cls-17" d="M387.5,249.37a37.59,37.59,0,0,1-2.88-11.29c4.65-.44,10.68-3.78,18.51-11.71,0,0,3.2,4.7,18,5.31,9,.37,20.37-3,26.8-9.87,7.69,8.76,3.89,18.89-.5,24.65-2-13.43-37.37,1.52-42-11.39C405,247.41,392,244.34,387.5,249.37Z"/><path class="cls-18" d="M735.08,252.16c-5.06-19-22.73-8.53-30.29,7.7s-24.89,79.55-39.86,95.94c-5.81,6.36-4,6.89,1.3,3.8C692.85,344.17,742,278.26,735.08,252.16Z"/><path class="cls-19" d="M661.35,360.74c-.18.85.62.89,2.14.27,40.35-34.14,61.79-110.44,61.86-110.69a.79.79,0,0,0-1.52-.43C723.76,250.14,702,327.48,661.35,360.74Z"/><path class="cls-19" d="M690.35,262.27c-8.82-13.82-20.25-1-22.17,13.79s.28,69.65-7.51,86.49c-3,6.53-1.47,6.51,2,2.69C680,346.23,702.49,281.3,690.35,262.27Z"/><path class="cls-18" d="M659.07,367.39c.07.72.72.55,1.76-.33,23.53-37.39,21.31-103.58,21.31-103.79a.66.66,0,1,0-1.32,0C680.82,263.52,683.07,330.62,659.07,367.39Z"/><path class="cls-19" d="M734.08,309.32c15.24,1.59,9.35,16.49-2.25,24.3s-58.33,28.89-69.15,42.45c-4.19,5.25-4.82,3.94-3.08-.55C668.25,353.1,713.1,307.13,734.08,309.32Z"/><path class="cls-18" d="M659.31,379.43c-.63.24-.76-.37-.46-1.62,21.41-35.29,77.65-61.13,77.83-61.21a.62.62,0,0,1,.52,1.12C737,317.8,680,344,659.31,379.43Z"/><path class="cls-16" d="M516.4,290.27l-3.78,33.26s5.72,77.88,8.53,110.83h42.47l.94-132.55Z"/><path class="cls-16" d="M538.93,319.11l-1.87,11.76,3.72,103.49h51.78c.86-7.16,1.64-13.29,2.27-17.7,3.89-27.22,5.22-65.05,5.2-74s-10.38-22.24-13.95-23.21S538.93,319.11,538.93,319.11Z"/><path class="cls-20" d="M521.61,159.32s-1.77-3.29-3.17-2.67-48.27,69.6-49.86,75.53-.94,16.46,8.14,31.06,28.48,50.45,29.17,51.22S517.18,308,518.32,306c0,0,.46-.66-.22-2s-23.76-56-25.22-59.94,39.66-52.59,41.62-56.49S544,163.29,521.61,159.32Z"/><path class="cls-21" d="M559.18,139.56l-20.41,14.59s-14.57,57-14.62,59.61-5.64,34-5.64,34,20.42,8.1,23.34.33,35.64-63.52,37.26-72.27-2.26-29.49-4.21-31.76S559.18,139.56,559.18,139.56Z"/><path class="cls-20" d="M538.64,149.17s-18.5,6.51-20.2,7.48S506.76,194,506,197.42s4.53,65.78,4.53,71.29-7,74.38-7.13,75.51a2,2,0,0,0,2.11,2.43c1.62,0,19.77-34.19,21.23-38.08S523.42,246,523.42,246l12.34-83.94Z"/><path class="cls-22" d="M593.52,158.39S620,185.1,621,186.72s-26.57,92.85-26.9,97.06,13.61,66.28,14.1,67.9a3.12,3.12,0,0,1-.41,1.62,6,6,0,0,1-2.18,1.94c-.57.41-65.38-10.05-70.57-13.29s-16.36-53.63-16.36-60.44,3.92-32.85,3.92-32.85l31.89-54S577.52,160.11,593.52,158.39Z"/><path class="cls-23" d="M589.33,154.19S620,185.1,621,186.72s-26.57,92.85-26.9,97.06,13.61,66.28,14.1,67.9a3.12,3.12,0,0,1-.41,1.62,6,6,0,0,1-2.18,1.94c-.29.21-17.54-2.45-34.94-5.52,15.1-21.76,14.31-57.81,13-60-1.53-2.56-9.59-8.07-8.37-8.48s9.5-.61,10.11-2.65S597.64,212,597.64,212l7.77-5.24s3.47-25.12,1-28.79-18.61-17.58-18.74-17.69C589.7,159.24,587.46,154.39,589.33,154.19Z"/><path class="cls-24" d="M617.29,182.65a46.43,46.43,0,0,1,6.79,6.82c2.77,3.62,37.36,75.91,38.07,82.69s-1.82,18.18-14.28,32.61S608,355.1,607.08,355.83s-11.26-9-12.16-11.38c0,0-.39-.8.58-2.15s35.7-57.25,38-61.3S599.12,216.55,597.64,212,592.06,183.13,617.29,182.65Z"/><path class="cls-15" d="M578.58,114.18c.19,10.1-2.43,20.54-1.77,30.65.13,2.07,1.12,2.75,3.67,4.41,3.53,5.25-6.12,21.84-12.46,22.83-.42.06-10.75-8-18.07-9.92-3.76-1-6.85,3.83-7.13,3.63-1.52-1.11,1.75-9.69.68-12.95,1.29-.34,2.44-3.22,3.35-4.06,5.93-5.47,4-19.12-.86-24.27C542.36,120.65,578.58,114.18,578.58,114.18Z"/><path class="cls-9" d="M585.26,153.2c-.8,2.29-20.39,28.43-20.39,28.43s-.7.94-1.73-.25-13.09-18-13.09-18l26.8-20-.61-4.59C576.63,138.36,586.09,150.85,585.26,153.2Z"/><path class="cls-9" d="M549.34,144.7s0,0-.1,0c-9.16-.65-10.55,25.31-8.94,30.4,0,0,5.57-8.5,9.4-11.89C551.43,161.64,546,149.91,549.34,144.7Z"/><path class="cls-24" d="M583,145.74s-34.27,42.48-36.7,46-21.06,47.47-23.65,56.87c0,0,28.68-35.81,32.73-39s19-15.72,19-15.72a2.17,2.17,0,0,0,.2-1.37c-.2-.57-4.37-10-4.37-10s12.47,1.86,13.61,1.78,6.73-27.91,6.9-28.73S583,145.74,583,145.74Z"/><path class="cls-24" d="M549.42,144.64s-9.07,2.1-10.53,2.91-13,19.93-13.28,21.55a1,1,0,0,0,.48,1.09,36.63,36.63,0,0,1,3.29,2.07c.24.24-4,.73-4,.73s-.48.18-.4.93S523.42,246,523.42,246s14.15-78.91,16.24-84.1,7.72-13.41,7.72-13.41Z"/><path class="cls-10" d="M534,99.48a8.08,8.08,0,1,1-8,8.13A8.09,8.09,0,0,1,534,99.48Z"/><path class="cls-10" d="M587.94,99.17a8.08,8.08,0,1,1-8,8.13A8.08,8.08,0,0,1,587.94,99.17Z"/><path class="cls-14" d="M558.18,57.94h0c15.22-.09,27.75,13.42,27.83,30l.14,27.43c.09,16.61-12.3,30.27-27.52,30.36h0c-15.23.09-27.75-13.42-27.84-30l-.14-27.44C530.57,71.69,543,58,558.18,57.94Z"/><path class="cls-15" d="M584.94,79.8A32.65,32.65,0,0,1,586,88l.14,27.43c.08,15.27-10.38,28.05-23.91,30.08l-2.36.24h0c15.12-1.5,18.32-21.36,18.32-27.35V102.81c0-14.69-8.13-16.22-13.69-16.22H536.88A5.38,5.38,0,0,0,532,89.87l-1.38-1.05v-.53A31.47,31.47,0,0,1,539.58,66c13.86,2.71,36.91,7.32,38.5,8.31C578.94,74.82,581.76,77.13,584.94,79.8Z"/><path class="cls-25" d="M526.88,80.05l5,5s2.38-9.28,22.43-6.42S535.8,60,531.43,62.33,523.26,71.58,526.88,80.05Z"/><path class="cls-16" d="M579,80.5s-19.73,2.16-29.77-4.22S530.65,67,528.07,70.42c-2.44,3.28,7.38,12.16,3.43,27.25-.22.82-.73,14.77-1,15.63-.1-5.46-1.85-19.42-3.66-22.91C521.41,80,513,72.13,523.93,56.49c6.74-9.59,18.18-14.09,23.49-9.23,17.32,15.82,41.16-4.74,41.31,21.48,0,0,12.84,4.32.91,30.6-2.7,0-3.54,2.06-3.53,3.79l.1,14C576.57,117.16,576.37,91.88,579,80.5Z"/><rect class="cls-26" x="565.56" y="318.12" width="65.65" height="105.81" rx="4.91"/><rect class="cls-1" x="623.4" y="318.12" width="53.43" height="105.81" rx="4.13"/><path class="cls-9" d="M554.38,358.3h57.85c0-10.36,11.17-11.51,11.17-11.51H565.56S554.38,347.94,554.38,358.3Z"/><rect class="cls-27" x="562.32" y="406.9" width="66.33" height="27.46" rx="3.23"/><path class="cls-28" d="M623.54,406.9h13.14c.3,0,3.5.12,5.3,4,1.88,4.1,1.68,8.21,7.27,8.21h2.4c5.59,0,5.43-4.2,7.27-8.21s5-4,5.3-4h12.47a3.23,3.23,0,0,1,3.23,3.23v21a3.23,3.23,0,0,1-3.23,3.23H623.54a3.24,3.24,0,0,1-3.24-3.23v-21A3.24,3.24,0,0,1,623.54,406.9Z"/><path class="cls-9" d="M554.38,394.55h57.85c0-10.36,11.17-11.51,11.17-11.51H565.56S554.38,384.19,554.38,394.55Z"/><path class="cls-29" d="M686.23,377.27H633.62c0-10.36-10.22-11.51-10.22-11.51H676S686.23,366.91,686.23,377.27Z"/><path class="cls-30" d="M631.77,329.61h40.32a1.78,1.78,0,0,1,1.78,1.78h0a1.78,1.78,0,0,1-1.78,1.78H631.77a1.78,1.78,0,0,1-1.78-1.78h0A1.78,1.78,0,0,1,631.77,329.61Z"/><path class="cls-30" d="M631.77,349.2h40.32a1.78,1.78,0,0,1,1.78,1.78h0a1.78,1.78,0,0,1-1.78,1.77H631.77A1.78,1.78,0,0,1,630,351h0A1.78,1.78,0,0,1,631.77,349.2Z"/><path class="cls-30" d="M631.77,390.1h40.32a1.78,1.78,0,0,1,1.78,1.78h0a1.78,1.78,0,0,1-1.78,1.77H631.77a1.78,1.78,0,0,1-1.78-1.77h0A1.78,1.78,0,0,1,631.77,390.1Z"/><path class="cls-29" d="M574.1,328.17h38.95a1.78,1.78,0,0,1,1.78,1.78h0a1.78,1.78,0,0,1-1.78,1.78H574.1a1.78,1.78,0,0,1-1.77-1.78h0A1.78,1.78,0,0,1,574.1,328.17Z"/><rect class="cls-31" x="572.33" y="372.29" width="42.51" height="3.56" rx="1.78"/><path class="cls-29" d="M574.1,400.51h38.95a1.78,1.78,0,0,1,1.78,1.78h0a1.78,1.78,0,0,1-1.78,1.78H574.1a1.78,1.78,0,0,1-1.77-1.78h0A1.78,1.78,0,0,1,574.1,400.51Z"/><rect class="cls-26" x="538.88" y="364.01" width="39.73" height="64.03" rx="2.97"/><rect class="cls-1" x="573.89" y="364.01" width="32.33" height="64.03" rx="2.5"/><path class="cls-9" d="M532.12,388.33h35c0-6.27,6.77-7,6.77-7h-35S532.12,382.06,532.12,388.33Z"/><path class="cls-27" d="M538.88,417.74h36.23a2,2,0,0,1,2,2v12.71a2,2,0,0,1-2,2H538.88a2,2,0,0,1-2-2V419.7A2,2,0,0,1,538.88,417.74Z"/><path class="cls-28" d="M574,417.74h8a3.78,3.78,0,0,1,3.2,2.45c1.14,2.48,1,5,4.4,5H591c3.38,0,3.29-2.55,4.4-5a3.68,3.68,0,0,1,3.21-2.45h7.55a2,2,0,0,1,2,2v12.71a2,2,0,0,1-2,1.95H574a2,2,0,0,1-2-1.95V419.7A2,2,0,0,1,574,417.74Z"/><path class="cls-9" d="M532.12,410.27h35c0-6.27,6.77-7,6.77-7h-35S532.12,404,532.12,410.27Z"/><path class="cls-29" d="M611.91,399.81H580.07c0-6.27-6.18-7-6.18-7h31.83S611.91,393.54,611.91,399.81Z"/><path class="cls-30" d="M579,371h24.4a1.08,1.08,0,0,1,1.08,1.08h0a1.07,1.07,0,0,1-1.08,1.07H579a1.07,1.07,0,0,1-1.07-1.07h0A1.08,1.08,0,0,1,579,371Z"/><path class="cls-30" d="M579,382.82h24.4a1.08,1.08,0,0,1,1.08,1.08h0a1.08,1.08,0,0,1-1.08,1.08H579a1.08,1.08,0,0,1-1.07-1.08h0A1.08,1.08,0,0,1,579,382.82Z"/><path class="cls-30" d="M579,407.58h24.4a1.07,1.07,0,0,1,1.08,1.07h0a1.08,1.08,0,0,1-1.08,1.08H579a1.08,1.08,0,0,1-1.07-1.08h0A1.07,1.07,0,0,1,579,407.58Z"/><rect class="cls-31" x="542.98" y="370.1" width="25.72" height="2.15" rx="1.08"/><path class="cls-31" d="M544.05,396.8h23.57a1.07,1.07,0,0,1,1.07,1.07v0a1.08,1.08,0,0,1-1.08,1.08H544.05a1.08,1.08,0,0,1-1.08-1.08v0A1.07,1.07,0,0,1,544.05,396.8Z"/><path class="cls-29" d="M544.05,413.88h23.58A1.07,1.07,0,0,1,568.7,415h0a1.07,1.07,0,0,1-1.07,1.08H544.05A1.07,1.07,0,0,1,543,415h0A1.07,1.07,0,0,1,544.05,413.88Z"/><path class="cls-16" d="M163,277l46.22.22a1.1,1.1,0,0,1,1.1,1.1v4.84a1.1,1.1,0,0,1-1.1,1.1L162.94,284a1.09,1.09,0,0,1-1.1-1.1v-4.83A1.11,1.11,0,0,1,163,277Zm45.11,2.42-44-.21v2.63l44,.21Z"/><path class="cls-16" d="M102.23,346.05l61.06-69.57a1.11,1.11,0,0,1,1.56-.11l3.63,3.19a1.11,1.11,0,0,1,.11,1.56l-61.06,69.57a1.1,1.1,0,0,1-1.55.11l-3.64-3.19a1.12,1.12,0,0,1-.11-1.56Zm62-67.29-59.61,67.92,2,1.73,59.6-67.92Z"/><path class="cls-24" d="M163.57,274.51a6.15,6.15,0,1,1-5.33,6.88A6.16,6.16,0,0,1,163.57,274.51Z"/><path class="cls-16" d="M102.2,346.38l42.93,82a1.1,1.1,0,0,0,1.49.46l4.28-2.24a1.11,1.11,0,0,0,.47-1.49l-42.93-82a1.11,1.11,0,0,0-1.49-.47l-4.28,2.25a1.09,1.09,0,0,0-.47,1.48Zm44.37,80-41.91-80.06,2.33-1.22,41.91,80.06Z"/><path class="cls-24" d="M144.94,430.37a6.15,6.15,0,1,0-3.56-7.94A6.15,6.15,0,0,0,144.94,430.37Z"/><path class="cls-24" d="M105.7,340.45a6.15,6.15,0,1,1-5.33,6.88A6.16,6.16,0,0,1,105.7,340.45Z"/><rect class="cls-32" x="84.07" y="425.16" width="101.32" height="15.55" rx="7.77"/><rect class="cls-33" x="114.63" y="425.16" width="101.32" height="15.55" rx="7.77"/><path class="cls-9" d="M199.22,292.78h22.61a12,12,0,0,0,11.93-11.92H187.3A12,12,0,0,0,199.22,292.78Z"/><path class="cls-34" d="M199.65,290.4h13.58a7.18,7.18,0,0,0,7.17-7.16H192.49A7.18,7.18,0,0,0,199.65,290.4Z"/><path class="cls-24" d="M191.62,275.38h37.81a9.15,9.15,0,0,1,9.12,9.12H182.5A9.15,9.15,0,0,1,191.62,275.38Z"/><path class="cls-25" d="M191.62,275.38h17.29A9.15,9.15,0,0,1,218,284.5H182.5A9.15,9.15,0,0,1,191.62,275.38Z"/><path class="cls-16" d="M648,105.73a.82.82,0,0,1-1.16.2.83.83,0,0,1-.2-1.16,35.35,35.35,0,1,1-5.54,29.06.83.83,0,0,1,.61-1,.84.84,0,0,1,1,.61A33.67,33.67,0,1,0,660,95.34,34,34,0,0,0,648,105.73Z"/><path class="cls-16" d="M691.66,109.79c-.93.81-3.47,3.42-5.07,8.94,1.39.92,5.22,3.85,3.42,7l-7.46,12.91c-1.81,3-6.21,1.19-7.69.46-4,4.16-5,7.66-5.21,8.86a11.67,11.67,0,0,0,6.84,1.45,7.33,7.33,0,0,0,5.45-3.06l14.49-25.1a7.38,7.38,0,0,0-.09-6.22,11.67,11.67,0,0,0-4.68-5.2Zm-6.6,9.08c2-7.37,5.72-10.24,6.1-10.52a.74.74,0,0,1,.82-.06,13.31,13.31,0,0,1,5.68,6.14,8.85,8.85,0,0,1,0,7.49L683.19,147a8.89,8.89,0,0,1-6.53,3.77,13.28,13.28,0,0,1-8.13-1.84.73.73,0,0,1-.39-.7s.39-4.88,6-10.57a.73.73,0,0,1,.9-.13s4.78,2.76,6.25.29L688.77,125c1.39-2.41-3-5-3.35-5.28A.71.71,0,0,1,685.06,118.87Z"/><text class="cls-35" transform="translate(646.48 130.72)"><tspan class="cls-36">2</tspan><tspan x="15.45" y="0">4</tspan></text><path class="cls-3" d="M451.41,67.09h48.16a7.52,7.52,0,0,1,7.5,7.51v42a.81.81,0,0,1-.51.77.83.83,0,0,1-.91-.18l-12.79-12.79H451.41a7.53,7.53,0,0,1-7.5-7.5V74.6A7.53,7.53,0,0,1,451.41,67.09Z"/><path class="cls-9" d="M445.72,62.22h48.16a8.52,8.52,0,0,1,8.5,8.49v42a1.83,1.83,0,0,1-.31,1,1.86,1.86,0,0,1-.82.67h0a1.79,1.79,0,0,1-2-.4l-12.49-12.49h-41a8.52,8.52,0,0,1-8.49-8.5V70.71a8.5,8.5,0,0,1,8.49-8.49Zm48.16,2H445.72a6.52,6.52,0,0,0-6.51,6.51V93a6.52,6.52,0,0,0,6.51,6.51h41.86l12.81,12.82V70.71a6.52,6.52,0,0,0-6.51-6.51Z"/><path class="cls-9" d="M445.32,70.51a.54.54,0,0,1,0-1.08h49a.54.54,0,1,1,0,1.08Z"/><path class="cls-9" d="M445.32,75.8a.54.54,0,0,1,0-1.08h5.19a.54.54,0,1,1,0,1.08Zm12.09,0a.54.54,0,0,1,0-1.08h36.87a.54.54,0,1,1,0,1.08Z"/><path class="cls-9" d="M445.32,81.09a.54.54,0,0,1,0-1.08h49a.54.54,0,1,1,0,1.08Z"/><path class="cls-9" d="M458.94,88.27a.55.55,0,0,1-.54-.55.54.54,0,0,1,.54-.54h35.34a.54.54,0,0,1,.54.54.55.55,0,0,1-.54.55Z"/><path class="cls-9" d="M474.72,94a.54.54,0,0,1,0-1.08h19.56a.54.54,0,1,1,0,1.08Z"/><path class="cls-9" d="M463.51,94a.54.54,0,0,1,0-1.08h7a.54.54,0,1,1,0,1.08Z"/><path class="cls-3" d="M729.41,440a1.24,1.24,0,0,0-2.48,0v2.91H724a1.24,1.24,0,1,0,0,2.47h2.9v2.91a1.24,1.24,0,0,0,2.48,0v-2.91h2.9a1.24,1.24,0,1,0,0-2.47h-2.9Z"/><path class="cls-19" d="M246.85,420.41H205a6.26,6.26,0,0,0,0,12.52h41.88a6.26,6.26,0,0,0,0-12.52Z"/><path class="cls-9" d="M153.18,421.14h53.55a5.55,5.55,0,0,1,5.53,5.53h0a5.54,5.54,0,0,1-5.53,5.53H153.18Z"/><path class="cls-37" d="M153.18,420.41a.73.73,0,0,0,0,1.46h53.55a4.8,4.8,0,0,1,0,9.6H153.18a.73.73,0,0,0,0,1.46h53.55a6.26,6.26,0,0,0,0-12.52Z"/><path class="cls-37" d="M244.92,426.67a6.28,6.28,0,0,0-6.26-6.26h5.45a6.26,6.26,0,0,1,0,12.52h-5.45a6.28,6.28,0,0,0,6.26-6.26Z"/><path class="cls-37" d="M237,426.67a6.28,6.28,0,0,0-6.26-6.26h5.45a6.26,6.26,0,0,1,0,12.52h-5.45a6.28,6.28,0,0,0,6.26-6.26Z"/><path class="cls-28" d="M164.19,409.45h36.67a5.48,5.48,0,1,1,0,11H164.19a5.48,5.48,0,0,1,0-11Z"/><path class="cls-9" d="M246.21,410.09H199.32a4.86,4.86,0,0,0-4.84,4.84h0a4.86,4.86,0,0,0,4.84,4.85h46.89Z"/><path class="cls-38" d="M246.21,409.45a.64.64,0,0,1,0,1.28H199.32a4.21,4.21,0,0,0,0,8.41h46.89a.64.64,0,1,1,0,1.27H199.32a5.48,5.48,0,0,1,0-11Z"/><path class="cls-38" d="M165.88,414.93a5.5,5.5,0,0,1,5.48-5.48h-4.77a5.48,5.48,0,1,0,0,11h4.77a5.48,5.48,0,0,1-5.48-5.48Z"/><path class="cls-38" d="M172.79,414.93a5.5,5.5,0,0,1,5.48-5.48H173.5a5.48,5.48,0,1,0,0,11h4.77a5.48,5.48,0,0,1-5.48-5.48Z"/><path class="cls-39" d="M495.3,434.36H315.2a6.16,6.16,0,0,1-6.06-5.72h0a5.34,5.34,0,0,1,5.37-5.72h180.1a6.17,6.17,0,0,1,6.06,5.72h0A5.34,5.34,0,0,1,495.3,434.36Z"/><path class="cls-40" d="M495.3,434.36H315.2a6.15,6.15,0,0,1-5-2.69,5.33,5.33,0,0,1,4.69-2.7H495a6.13,6.13,0,0,1,5,2.7A5.33,5.33,0,0,1,495.3,434.36Z"/><path class="cls-40" d="M499.06,422.92H355a7,7,0,0,1-7-7.48l5.9-93.3a8.11,8.11,0,0,1,8-7.49h144a7,7,0,0,1,7,7.49l-5.9,93.3A8.1,8.1,0,0,1,499.06,422.92Z"/><path class="cls-9" d="M499.06,422.92H359.26a7,7,0,0,1-7-7.48l5.9-93.3a8.11,8.11,0,0,1,8-7.49H505.9a7,7,0,0,1,7,7.49l-5.9,93.3A8.1,8.1,0,0,1,499.06,422.92Z"/><path class="cls-41" d="M491.44,422.92H477.06L357.8,327.61l.35-5.47a7.88,7.88,0,0,1,1.7-4.39L491.44,422.92ZM376,314.65l130.09,104a7.74,7.74,0,0,0,.91-3.19l.92-14.51L400,314.65Z"/><path class="cls-9" d="M347.93,434.36H315.2a6.16,6.16,0,0,1-6.06-5.72h0a5.34,5.34,0,0,1,5.37-5.72h32.73a6.18,6.18,0,0,1,6.07,5.72h0A5.35,5.35,0,0,1,347.93,434.36Z"/><path class="cls-42" d="M497.64,425.78H347.78a3.08,3.08,0,0,1-3-2.86h0a2.67,2.67,0,0,1,2.69-2.86H497.3a3.09,3.09,0,0,1,3,2.86h0A2.67,2.67,0,0,1,497.64,425.78Z"/><path class="cls-16" d="M327.09,307.31c-1.11-5.5-.83-8.57.23-13.79l-23.62-2,32.87-14.41s7-8.56,10.27-17-5.63-29.78-9-35.09-10.31-4.51-14.89-1.64c0,0-6.89-10.37-15.11-11.07s-34.34,1.72-41.93,20.89,4.62,38.34-7.6,58.06a4.89,4.89,0,0,0,.51,4.59c1.58,2.11,20.85,24.56,64.77,15.52,0,0,3.5-.82,3.49-4.1Z"/><path class="cls-17" d="M296.14,313.19c2.42-26.41,4.12-49.36,4.12-49.36L298,256.38s-20.22,16.35-34.58-.85c.68,11.8,2.37,23.68-5.12,35.77a4.89,4.89,0,0,0,.51,4.59l.06.09,0,0,.06.07.06.07,0,.05.11.12h0l.13.14,0,0,.11.11.09.11.06.07.15.17,0,0,.19.2,0,.05.16.17.11.12.11.1.07.08.16.16.25.25.17.17.13.13c4.21,4.06,14,11.58,30.49,14.19h0c1.43.22,2.91.41,4.45.56Z"/><path class="cls-17" d="M327.09,307.31c-1.5-7.47-.45-10.47,1.64-20.45l-37.58-5.92-16.42,3.19A110.47,110.47,0,0,1,269,304.46c10,6.19,27.66,12.5,54.6,7,0,0,3.5-.82,3.49-4.1Z"/><path class="cls-28" d="M277.23,308.94c10.4,3.26,24.61,7.16,36.87,13.18.85.42-.88,3.68-.09,4.12a28.74,28.74,0,0,1,5.38,4.37c5.72,5.66,17.37,50,16.33,54.39-1.67,7.1-16.39,26.61-16.39,26.61-2.92,5.64-6.55,13.87-10.1,22.75H236.12c5.09-16.55,7-27.76,7.12-37.87h0c3.91-34.35-14.57-41.83-14.57-41.83l19.14-45c7.44-2.63,22.28-1.64,22.28-1.64C274,308,273.72,307.83,277.23,308.94Z"/><path class="cls-38" d="M309.23,434.36H298.91c1.92-5.14,10.87-29.48,12.78-34.67-8.7-1.51-20.67-3.59-22.78-4.09s-10.19,4.11-10.19,4.11l.9-5.25-8.68,8.74,14.84-27.7S310,381,315.13,381.9s2,.22,3,.15c2.86-8.05-1.82-10.3-1.26-14.19s.72-41.67.72-41.67c3.12,1.62,4.54,5.15,6.31,10.7,1.16,3.66,7.34,27.7,9.9,41.92.61,3.38,1.09,5.91,1.4,7.93C329.42,401.36,316.54,416.09,309.23,434.36Z"/><path class="cls-10" d="M295.28,267.43l-3.66,11s-5.53,25.95-6.81,29.31c-.45,1.17-1.91,1.53-4.16,1.47,3.24,4.64,9.53,11.72,18.62,13.44,5.81,1.1,9.87,0,12.62-1.61-1.94-1-3.8-2.24-3.79-3.24.08-8.86,1.6-24.44,6.4-27.32C320,287.18,295.28,267.43,295.28,267.43Z"/><path class="cls-9" d="M282.47,309.14a23.38,23.38,0,0,1-5.24-.2c2.24,3.22,5.85,6.84,11.64,10.51,14.34,9.09,21.24,4.14,23.42,1.8A16.08,16.08,0,0,1,308.8,319h0c-13.38,6.54-26.33-9.87-26.33-9.87Z"/><path class="cls-22" d="M313.52,321.84s5.72,57.55,5,62.41-9.79,28.81-17.76,50.11h13.7c2.71-5.21,4.78-9.28,5.15-10.26.25-.64,1.19-2.48,2.5-4.89,2.34-4.34,5.84-10.52,8.47-14.84,8.4-13.79,8.38-10.57,5.47-26.73-2.56-14.22-10.41-40.52-11.57-44.18C322.74,327.9,315,321.44,313.52,321.84Z"/><path class="cls-16" d="M312.72,401.94c-1.89,5.26-4.08,11.26-6.35,17.41a46,46,0,0,1,8.67,1.24c4.17,1.64,4.6,3.51,4.6,3.51.25-.64,1.19-2.48,2.5-4.89,2.34-4.34,5.84-10.52,8.47-14.84,2.53-4.15,4.29-6.76,5.45-8.82-1.62,1.42-4.2,3.56-5.45,3.94C329.09,400,317.41,401.38,312.72,401.94Z"/><path class="cls-22" d="M275.08,307.71s10.49,50.83,11.93,65.6-3.19,25.35-8.39,36.45c-1.75,3.74-7.37,13.29-14.29,24.6H232l3.45-79.84-9.26-2.14c.55-4,1-7.34,1.31-9.66l18.24-32.25S252.64,304.89,275.08,307.71Z"/><path class="cls-16" d="M255.44,332.18c-5.16,20.69-1.58,29.28-1.58,29.28l2.76-12.88s2.61,19,5.52,21.43c1.44,1.21,18.61,4.5,25.05,5.7A54,54,0,0,1,284,397c-4.61.48-32.4-3.44-33.73,5.54-.66,4.48-.51-9.93-.51-9.93l-1.65,41.75H232l3.45-79.84-9.26-2.14,0-.19,0-.19,0-.18,0-.19h0l0-.18,0-.18,0-.19,0-.18,0-.18,0-.17,0-.18h0l0-.18,0-.17,0-.17h0l0-.17,0-.17h0l0-.17h0l0-.17h0l0-.17h0l0-.16h0l0-.17h0l0-.16h0l0-.17h0l0-.16h0l0-.16h0l0-.16h0l0-.16h0l0-.16h0l0-.15h0l0-.16h0l0-.15h0l0-.16h0l0-.15h0l0-.15h0l0-.15h0l0-.14h0l0-.14h0l0-.15h0l0-.14h0l0-.14h0v-.14h0l0-.14h0l0-.14h0l0-.14h0l0-.14h0l0-.13h0l0-.14h0v-.13h0l0-.13h0l0-.13h0v-.13h0l0-.12h0l0-.13h0l0-.12h0v-.12h0l0-.12h0v-.12h0l0-.11h0v-.11h0l0-.12h0l0-.11h0v-.11h0v-.11h0l0-.1,9.88-17.47Z"/><path class="cls-24" d="M229.89,333c-5.91,16.16-7.52,71.59-2.65,101.34h25.95C242.58,375.3,264.87,333.05,260,318.08,252.13,294.12,233.78,322.4,229.89,333Z"/><path class="cls-17" d="M333.68,278.39l2.89-1.27A83.76,83.76,0,0,0,345,264.23c-.69,1.31-5.25,9.27-11.92,4.4-7.25-5.29-7.55,3.1-7.55,3.1s4.39,5,6.94,6.15c.33.15.74.32,1.22.51Zm11.39-14.34h0Z"/><path class="cls-10" d="M330.6,273.57a8.27,8.27,0,1,0,7.38,9.08A8.27,8.27,0,0,0,330.6,273.57Z"/><path class="cls-10" d="M273,267.7l-.62.05h0a8.27,8.27,0,1,0,6.74,2.24c0,2.45-.64,5.43-3.77,5.47l.49-4.75A2.84,2.84,0,0,0,273,267.7Z"/><path class="cls-14" d="M308.61,229.24h0a28.41,28.41,0,0,0-31.1,25.26l-2.65,25.62a28.41,28.41,0,0,0,25.26,31.1h0A28.42,28.42,0,0,0,331.22,286l2.66-25.61A28.42,28.42,0,0,0,308.61,229.24Z"/><path class="cls-15" d="M277,259l-2.18,21.13a28.43,28.43,0,0,0,18.06,29.37c-16.49-6.83-8-35.49-8-35.49,3.34-.57,8.61-6.8,11.67-10.42s5.43-7.27,10.71-7.17,16.45,2.88,16.45,2.88a31.06,31.06,0,0,0,9.08,11.5l1.08-10.45a28.16,28.16,0,0,0-.53-9.1L331.21,250C308.52,237.26,289.26,247.58,277,259Z"/><path class="cls-17" d="M329.66,252.32l-4.59,2a13.51,13.51,0,0,0-9.24-1.49s-10.06-3.69-15.39-1.63-2.19-5.34-1.22-5.67,11.08-1,15.49-.12,11,1.88,11,1.88Z"/><path class="cls-17" d="M276.07,266.33l2.72.48s1.88,8.58-3.45,8.65l.49-4.75a2.71,2.71,0,0,0-.05-.91Z"/><path class="cls-16" d="M315.83,252.78c-4.14-5.58-10.9-6.73-16.17,1.12-4.8,7.17-11.94,19.58-24,18.57l-.06-.22h0l.68-8s-1,.27-2.24.56a51.88,51.88,0,0,1-.42-14.35c1.39-10.06,15.39-24.76,31.18-25.32s27.21,8.81,29.48,14.15,4.49,17.48,4.49,17.48l-2.78,4-3,7.89c-7.26-7.06-6.52-13.74-9.67-17.11C321.69,249.7,319.13,249.69,315.83,252.78Z"/><path class="cls-17" d="M298,256.39c-4.76,7.21-11.6,17-22.32,16.08l-.06-.22h0l.68-8s-1,.27-2.24.56c-.11-.69-.21-1.42-.3-2.17C285.91,266.15,298,256.42,298,256.39Z"/><path class="cls-43" d="M310.47,320.24s7.38,60.49,7.23,62.45-2.1,11.42-2.1,11.42,3.56-6,4.43-10.91,3.2-38.41,3.2-38.41l-3.93-2.11,3.64-.21-6-18.79a5.35,5.35,0,0,0-1.64-1.95c-.94-.54-4.39-2.27-4.44-2.3a2.3,2.3,0,0,0-1.35.17Z"/><path class="cls-43" d="M275.08,307.71s10.49,50.83,11.93,65.6a52.44,52.44,0,0,1-.91,16.38C288,374.58,266.76,339,266.76,339l5.53-2.62-7.42-3.35s3.42-19.13,3.64-22.33S267.07,307,267,307C269.42,307.11,272.11,307.34,275.08,307.71Z"/><path class="cls-23" d="M65.17,456.81h9.18A6.67,6.67,0,0,0,81,450.16h0a6.68,6.68,0,0,0-6.66-6.66H50.09a5.3,5.3,0,0,1-5.29-5.28h0a5.3,5.3,0,0,1,5.29-5.29H691.14a5.3,5.3,0,0,1,5.28,5.29h0a5.3,5.3,0,0,1-5.28,5.28H657.86a6.68,6.68,0,0,0-6.66,6.66h0a6.67,6.67,0,0,0,6.66,6.65h7.8a10.61,10.61,0,0,1,10.57,10.57h0a10.6,10.6,0,0,1-10.57,10.56H65.17A10.6,10.6,0,0,1,54.6,467.38h0a10.61,10.61,0,0,1,10.57-10.57ZM35.81,432.93a5.29,5.29,0,1,1-5.28,5.29A5.28,5.28,0,0,1,35.81,432.93Z"/><path class="cls-44" d="M393.29,156H345.13a8.52,8.52,0,0,0-8.49,8.5v41.94a1.83,1.83,0,0,0,.31,1,1.7,1.7,0,0,0,.82.67h0a1.75,1.75,0,0,0,1.05.11,1.84,1.84,0,0,0,.94-.5l12.5-12.5h41a8.52,8.52,0,0,0,8.5-8.5V164.5a8.54,8.54,0,0,0-8.5-8.5Zm-48.16,2h48.16a6.56,6.56,0,0,1,6.52,6.52v22.24a6.56,6.56,0,0,1-6.52,6.52H351.44l-12.82,12.81V164.5a6.56,6.56,0,0,1,6.51-6.52Z"/><path class="cls-44" d="M393.69,164.29a.54.54,0,1,0,0-1.08h-49a.54.54,0,1,0,0,1.08Z"/><path class="cls-44" d="M393.69,169.59a.55.55,0,0,0,.54-.55.54.54,0,0,0-.54-.54h-5.18a.55.55,0,0,0-.55.54.55.55,0,0,0,.55.55Zm-12.09,0a.55.55,0,0,0,.54-.55.54.54,0,0,0-.54-.54H344.73a.54.54,0,0,0-.54.54.55.55,0,0,0,.54.55Z"/><path class="cls-44" d="M393.69,174.88a.55.55,0,0,0,.54-.55.54.54,0,0,0-.54-.54h-49a.54.54,0,0,0-.54.54.55.55,0,0,0,.54.55Z"/><path class="cls-44" d="M380.08,182.05a.54.54,0,0,0,.54-.54.55.55,0,0,0-.54-.55H344.73a.55.55,0,0,0-.54.55.54.54,0,0,0,.54.54Z"/><path class="cls-44" d="M364.3,187.79a.54.54,0,0,0,.54-.54.55.55,0,0,0-.54-.55H344.73a.55.55,0,0,0-.54.55.54.54,0,0,0,.54.54Z"/><path class="cls-44" d="M375.5,187.79a.55.55,0,0,0,.55-.54.55.55,0,0,0-.55-.55h-7a.55.55,0,0,0-.54.55.54.54,0,0,0,.54.54Z"/></g></svg>