<svg id="Layer_1" data-name="Layer 1" xmlns="http://www.w3.org/2000/svg" viewBox="0 0 283.46 283.46"><defs><style>.cls-1{fill:#fff;}</style></defs><title>fb_ye</title><path class="cls-1" d="M257.23,14.16H27.09A13.93,13.93,0,0,0,13.16,28.09V258.23a13.93,13.93,0,0,0,13.93,13.93H151V176H117.18V135.78l34.1.49C142.4,47.48,190,52.71,232.47,56.06V91.84c-37.46,0-41.64-6.91-40.48,44.3l39.67.05-5.47,39.34-33.9-.21-.19,96.84h65.13a13.93,13.93,0,0,0,13.93-13.93V28.09A13.93,13.93,0,0,0,257.23,14.16Z"/></svg>