<svg id="Layer_1" data-name="Layer 1" xmlns="http://www.w3.org/2000/svg" viewBox="0 0 100 100"><defs><style>.cls-1{fill:none;stroke:#e84d91;stroke-miterlimit:10;stroke-width:3px;}.cls-2{fill:#e84d91;}</style></defs><title>feature1</title><rect class="cls-1" x="1.62" y="1.65" width="97.05" height="97.05" rx="2.84"/><line class="cls-1" x1="8.51" y1="20.1" x2="90.98" y2="20.1"/><rect class="cls-1" x="34.6" y="32.36" width="30.28" height="25.62" rx="2.79"/><path class="cls-2" d="M16.18,72.1H84.79a1.5,1.5,0,0,0,0-3H16.18a1.5,1.5,0,0,0,0,3Z"/><path class="cls-2" d="M16.18,79.88H84.79a1.5,1.5,0,0,0,0-3H16.18a1.5,1.5,0,0,0,0,3Z"/><path class="cls-2" d="M16.18,88.56H84.79a1.5,1.5,0,0,0,0-3H16.18a1.5,1.5,0,0,0,0,3Z"/><rect class="cls-1" x="10.54" y="9.58" width="17.07" height="3.04" rx="0.67"/></svg>