<svg id="Layer_1" data-name="Layer 1" xmlns="http://www.w3.org/2000/svg" viewBox="0 0 100 100"><defs><style>.cls-1{fill:none;stroke:#e84d91;stroke-miterlimit:10;stroke-width:3px;}.cls-2{fill:#e84d91;}</style></defs><title>feature2</title><rect class="cls-1" x="1.59" y="1.65" width="96.7" height="96.7" rx="2.84"/><line class="cls-1" x1="8.46" y1="20.03" x2="90.63" y2="20.03"/><rect class="cls-1" x="11.29" y="30.02" width="30.17" height="25.53"/><path class="cls-2" d="M51.49,32.92H88.71a1.5,1.5,0,0,0,0-3H51.49a1.5,1.5,0,0,0,0,3Z"/><path class="cls-2" d="M51.49,41.7H88.71a1.5,1.5,0,0,0,0-3H51.49a1.5,1.5,0,0,0,0,3Z"/><path class="cls-2" d="M51.49,50.26H88.71a1.5,1.5,0,0,0,0-3H51.49a1.5,1.5,0,0,0,0,3Z"/><path class="cls-2" d="M11.29,68.78H88.71a1.5,1.5,0,0,0,0-3H11.29a1.5,1.5,0,0,0,0,3Z"/><path class="cls-2" d="M11.29,77.56H88.71a1.5,1.5,0,0,0,0-3H11.29a1.5,1.5,0,0,0,0,3Z"/><path class="cls-2" d="M11.29,87.36H88.71a1.5,1.5,0,0,0,0-3H11.29a1.5,1.5,0,0,0,0,3Z"/><rect class="cls-1" x="10.48" y="9.56" width="17" height="3.03" rx="0.67"/><path class="cls-2" d="M51.49,59.87H88.71a1.5,1.5,0,0,0,0-3H51.49a1.5,1.5,0,0,0,0,3Z"/></svg>