<svg id="Layer_1" data-name="Layer 1" xmlns="http://www.w3.org/2000/svg" viewBox="0 0 100 100"><defs><style>.cls-1{fill:none;stroke:#e84d91;stroke-miterlimit:10;stroke-width:3px;}.cls-2{fill:#e84d91;}</style></defs><title>feature3</title><rect class="cls-1" x="1.65" y="1.65" width="96.7" height="96.7" rx="2.84"/><line class="cls-1" x1="8.51" y1="20.03" x2="90.68" y2="20.03"/><rect class="cls-1" x="10.53" y="30.02" width="30.98" height="25.53"/><path class="cls-2" d="M51.55,32.92H88.76a1.5,1.5,0,0,0,0-3H51.55a1.5,1.5,0,0,0,0,3Z"/><path class="cls-2" d="M51.55,41.7H88.76a1.5,1.5,0,0,0,0-3H51.55a1.5,1.5,0,0,0,0,3Z"/><path class="cls-2" d="M51.55,51.5H88.76a1.5,1.5,0,0,0,0-3H51.55a1.5,1.5,0,0,0,0,3Z"/><path class="cls-2" d="M11.34,68.78H46.51a1.5,1.5,0,0,0,0-3H11.34a1.5,1.5,0,0,0,0,3Z"/><path class="cls-2" d="M11.34,77.56H46.51a1.5,1.5,0,0,0,0-3H11.34a1.5,1.5,0,0,0,0,3Z"/><path class="cls-2" d="M11.34,87.36H46.51a1.5,1.5,0,0,0,0-3H11.34a1.5,1.5,0,0,0,0,3Z"/><circle class="cls-1" cx="73.97" cy="76.38" r="14.8"/><rect class="cls-1" x="10.53" y="9.56" width="17" height="3.03" rx="0.67"/></svg>