<svg id="Layer_1" data-name="Layer 1" xmlns="http://www.w3.org/2000/svg" xmlns:xlink="http://www.w3.org/1999/xlink" viewBox="0 0 100 100"><defs><style>.cls-1{fill:url(#linear-gradient);}.cls-2{fill:url(#linear-gradient-2);}.cls-3{fill:url(#linear-gradient-3);}.cls-4{fill:url(#linear-gradient-4);}.cls-5{fill:url(#linear-gradient-5);}.cls-6{fill:url(#linear-gradient-6);}.cls-7{fill:url(#linear-gradient-7);}.cls-8{fill:url(#linear-gradient-8);}.cls-9{fill:url(#linear-gradient-9);}.cls-10{fill:url(#linear-gradient-10);}.cls-11{fill:url(#linear-gradient-11);}.cls-12{fill:url(#linear-gradient-12);}.cls-13{fill:url(#linear-gradient-13);}.cls-14{fill:url(#linear-gradient-14);}.cls-15{fill:url(#linear-gradient-15);}.cls-16{fill:url(#linear-gradient-16);}.cls-17{fill:url(#linear-gradient-17);}.cls-18{fill:url(#linear-gradient-18);}.cls-19{fill:url(#linear-gradient-19);}.cls-20{fill:url(#linear-gradient-20);}.cls-21{fill:url(#linear-gradient-21);}.cls-22{fill:url(#linear-gradient-22);}.cls-23{fill:url(#linear-gradient-23);}.cls-24{fill:url(#linear-gradient-24);}.cls-25{fill:url(#linear-gradient-25);}.cls-26{fill:url(#linear-gradient-26);}</style><linearGradient id="linear-gradient" x1="14.37" y1="17.62" x2="14.37" y2="1.86" gradientUnits="userSpaceOnUse"><stop offset="0" stop-color="#050c23"/><stop offset="0.36" stop-color="#162041"/><stop offset="0.76" stop-color="#25325c"/><stop offset="1" stop-color="#2b3966"/></linearGradient><linearGradient id="linear-gradient-2" x1="14.39" y1="38.57" x2="14.39" y2="17.08" xlink:href="#linear-gradient"/><linearGradient id="linear-gradient-3" x1="369.61" y1="204.51" x2="369.61" y2="57.32" gradientTransform="translate(451.08 46.94) rotate(180) scale(1.18 0.15)" xlink:href="#linear-gradient"/><linearGradient id="linear-gradient-4" x1="14.38" y1="51.38" x2="14.38" y2="38.28" xlink:href="#linear-gradient"/><linearGradient id="linear-gradient-5" x1="17.69" y1="73.73" x2="17.69" y2="57.72" gradientTransform="matrix(1, 0, 0, -0.86, 0, 100.97)" xlink:href="#linear-gradient"/><linearGradient id="linear-gradient-6" x1="14.38" y1="98.77" x2="14.38" y2="49.71" xlink:href="#linear-gradient"/><linearGradient id="linear-gradient-7" x1="363.63" y1="73.9" x2="363.63" y2="57.9" gradientTransform="translate(642.22 100.97) rotate(180) scale(1.74 0.86)" xlink:href="#linear-gradient"/><linearGradient id="linear-gradient-8" x1="14.39" y1="76.87" x2="14.39" y2="51.09" xlink:href="#linear-gradient"/><linearGradient id="linear-gradient-9" x1="21.03" y1="100" x2="21.03" y2="77.07" xlink:href="#linear-gradient"/><linearGradient id="linear-gradient-10" x1="16.26" y1="11.38" x2="16.26" y2="0.35" xlink:href="#linear-gradient"/><linearGradient id="linear-gradient-11" x1="24.86" y1="5.19" x2="43.35" y2="5.19" xlink:href="#linear-gradient"/><linearGradient id="linear-gradient-12" x1="21.07" y1="5.86" x2="43.35" y2="5.86" xlink:href="#linear-gradient"/><linearGradient id="linear-gradient-13" x1="48.99" y1="13.45" x2="48.99" y2="0.08" xlink:href="#linear-gradient"/><linearGradient id="linear-gradient-14" x1="55.08" y1="13.45" x2="55.08" y2="0.81" xlink:href="#linear-gradient"/><linearGradient id="linear-gradient-15" x1="67.93" y1="14.19" x2="67.93" y2="3.14" xlink:href="#linear-gradient"/><linearGradient id="linear-gradient-16" x1="57.14" y1="10.75" x2="68.57" y2="10.75" xlink:href="#linear-gradient"/><linearGradient id="linear-gradient-17" x1="70.59" y1="25.32" x2="70.59" y2="9.93" xlink:href="#linear-gradient"/><linearGradient id="linear-gradient-18" x1="78.42" y1="25.32" x2="78.42" y2="9.93" xlink:href="#linear-gradient"/><linearGradient id="linear-gradient-19" x1="77.08" y1="20.85" x2="86.93" y2="30.71" xlink:href="#linear-gradient"/><linearGradient id="linear-gradient-20" x1="77.74" y1="22.36" x2="83.22" y2="31.85" xlink:href="#linear-gradient"/><linearGradient id="linear-gradient-21" x1="84.74" y1="62.4" x2="84.74" y2="28.34" xlink:href="#linear-gradient"/><linearGradient id="linear-gradient-22" x1="76.86" y1="62.14" x2="92.62" y2="62.14" xlink:href="#linear-gradient"/><linearGradient id="linear-gradient-23" x1="70.09" y1="76.61" x2="85.59" y2="76.61" xlink:href="#linear-gradient"/><linearGradient id="linear-gradient-24" x1="58.89" y1="99.15" x2="58.89" y2="75.95" xlink:href="#linear-gradient"/><linearGradient id="linear-gradient-25" x1="27.03" y1="99.95" x2="27.03" y2="89.01" xlink:href="#linear-gradient"/><linearGradient id="linear-gradient-26" x1="44.45" y1="78.46" x2="44.45" y2="99.8" xlink:href="#linear-gradient"/></defs><title>logohead</title><path class="cls-1" d="M7.67,1.86V17.62h13.4V11.38Z"/><path class="cls-2" d="M7.77,17.08H21V38.57Z"/><path class="cls-3" d="M21,38.57H7.75V17.08Z"/><polygon class="cls-4" points="7.77 38.28 20.99 38.28 14.37 51.38 7.77 38.28"/><polygon class="cls-5" points="14.39 51.25 20.99 37.46 20.99 51.25 14.39 51.25"/><polygon class="cls-6" points="7.77 49.71 20.99 77.07 7.77 98.77 7.77 49.71"/><polygon class="cls-7" points="14.37 51.09 7.77 37.31 7.77 51.09 14.37 51.09"/><path class="cls-8" d="M7.77,51.09H21V76.87Q14.4,64,7.77,51.09Z"/><path class="cls-9" d="M21,89c0-5.73,0-6.48,0-11.94C16.65,83.86,12.12,92,7.77,98.77c7.31,1,19.22,1.23,26.4,1.23C35.83,100,21,95.22,21,89"/><path class="cls-10" d="M24.86.35C18.67.66,14.37,1.14,7.67,2c3.87,3.79,7.91,6.35,13.4,9.37C22.36,7.75,23.57,4,24.86.35Z"/><path class="cls-11" d="M24.86.45A150.05,150.05,0,0,1,40.74.08c.78,3.4,1.83,6.91,2.61,10.3C35.79,7.8,31,3.79,24.86.45Z"/><path class="cls-12" d="M21.07,11.38C28,9.87,37.89,10,43.35,10.38L24.86.35C23.58,3.93,22.35,7.8,21.07,11.38Z"/><path class="cls-13" d="M40.74.08c.85,3.43,1.76,6.87,2.61,10.3,4.43,1,9.46,2.06,13.89,3.07L49.41.81C45.29.35,44.27.2,40.74.08Z"/><path class="cls-14" d="M49.41.81c2.42,4.18,3.66,8.8,7.83,12.64,1.15-3.4,2.37-6.91,3.52-10.31A61.18,61.18,0,0,0,49.41.81Z"/><path class="cls-15" d="M60.76,3.14c2.6,3.63,5.77,7.42,8.38,11,2-1.36,4-2.9,6-4.26A45.52,45.52,0,0,0,60.76,3.14Z"/><path class="cls-16" d="M60.76,3.14a80.5,80.5,0,0,0-3.62,10.31c2.85,1.32,4.7,1.74,8.93,4.91a16.74,16.74,0,0,0,2.5-5C66,9.93,63.3,6.53,60.76,3.14Z"/><path class="cls-17" d="M66.07,18.36c.75-1.39,1.77-3.74,2.42-5.31a72,72,0,0,0,6.62-3.12c-1,5-1.5,10.43-2.5,15.39A34.19,34.19,0,0,0,66.07,18.36Z"/><path class="cls-18" d="M72.61,25.32c1-5,1.46-10.42,2.5-15.39a42.38,42.38,0,0,1,9.11,9.13C82.11,20.49,74.72,23.89,72.61,25.32Z"/><path class="cls-19" d="M72.61,25.32c3.77-2.34,7.84-3.92,11.61-6.26a36.06,36.06,0,0,1,5.07,9.28C83.88,27.59,78,26.08,72.61,25.32Z"/><path class="cls-20" d="M72.61,25.32c5.5.68,11.33,2.13,16.68,3-4.09,2-8.12,4.94-12.21,6.91A34.93,34.93,0,0,0,72.61,25.32Z"/><path class="cls-21" d="M89.29,28.34c-4.11,1.82-8.09,5.09-12.21,6.91,1.51,4.87,2.55,18.55-.22,27.15,5.21-4.64,10.55-9.28,15.76-13.92C92.48,45.54,92.87,37.35,89.29,28.34Z"/><path class="cls-22" d="M92.62,48.33C87.5,52.61,82,58.13,76.86,62.4,79.39,66.59,82,70.79,85.59,76,87.06,73.05,92.3,65.1,92.62,48.33Z"/><path class="cls-23" d="M76.86,62.4C80,65.72,83.26,72.51,85.59,76,78.66,87.07,72.35,90,71.16,90.82c-.24-4.73-.83-10.14-1.07-14.87C71.63,74,74.61,70.42,76.86,62.4Z"/><path class="cls-24" d="M70.09,76c.52,4.27.55,10.6,1.07,14.87a63,63,0,0,1-24.54,8.33C52.84,92.24,63.87,82.86,70.09,76Z"/><path class="cls-25" d="M16,98.84c2-3.23,3-6.6,5-9.83,5.36,3.55,12.66,6.32,17.08,10.79C29.52,100.38,23.34,99.16,16,98.84Z"/><path class="cls-26" d="M21.17,89.13c3.87,3.23,13,7.44,16.91,10.67,2,0,6.53-.47,8.54-.65,5-4.51,16.66-15.92,21.11-20.69C51.82,92.73,31.73,89.8,21.17,89.13Z"/></svg>