<svg id="Layer_1" data-name="Layer 1" xmlns="http://www.w3.org/2000/svg" xmlns:xlink="http://www.w3.org/1999/xlink" viewBox="0 0 800 800"><defs><style>.cls-1{fill:url(#linear-gradient);}.cls-2{fill:url(#linear-gradient-2);}.cls-3{fill:url(#linear-gradient-3);}.cls-4{fill:url(#linear-gradient-4);}.cls-5{fill:url(#linear-gradient-5);}.cls-6{fill:url(#linear-gradient-6);}.cls-7{fill:url(#linear-gradient-7);}.cls-8{fill:url(#linear-gradient-8);}.cls-9{fill:url(#linear-gradient-9);}.cls-10{fill:url(#linear-gradient-10);}.cls-11{fill:url(#linear-gradient-11);}.cls-12{fill:url(#linear-gradient-12);}.cls-13{fill:url(#linear-gradient-13);}.cls-14{fill:url(#linear-gradient-14);}.cls-15{fill:url(#linear-gradient-15);}.cls-16{fill:url(#linear-gradient-16);}.cls-17{fill:url(#linear-gradient-17);}.cls-18{fill:url(#linear-gradient-18);}.cls-19{fill:url(#linear-gradient-19);}.cls-20{fill:url(#linear-gradient-20);}.cls-21{fill:url(#linear-gradient-21);}.cls-22{fill:url(#linear-gradient-22);}.cls-23{fill:url(#linear-gradient-23);}.cls-24{fill:url(#linear-gradient-24);}.cls-25{fill:url(#linear-gradient-25);}.cls-26{fill:url(#linear-gradient-26);}.cls-27{fill:url(#linear-gradient-27);}.cls-28{fill:url(#linear-gradient-28);}.cls-29{fill:url(#linear-gradient-29);}.cls-30{fill:url(#linear-gradient-30);}.cls-31{fill:url(#linear-gradient-31);}</style><linearGradient id="linear-gradient" x1="1.38" y1="400" x2="800" y2="400" gradientUnits="userSpaceOnUse"><stop offset="0" stop-color="#050c23"/><stop offset="0.36" stop-color="#162041"/><stop offset="0.76" stop-color="#25325c"/><stop offset="1" stop-color="#2b3966"/></linearGradient><linearGradient id="linear-gradient-2" x1="1029.2" y1="658.2" x2="-48.78" y2="-20.24" gradientTransform="matrix(-0.63, 0, 0, 1, 599.48, 0)" gradientUnits="userSpaceOnUse"><stop offset="0" stop-color="#050c23"/><stop offset="0.74" stop-color="#1e2a4f"/><stop offset="1" stop-color="#2b3966"/></linearGradient><linearGradient id="linear-gradient-3" x1="400.69" y1="663.19" x2="400.69" y2="0" xlink:href="#linear-gradient"/><linearGradient id="linear-gradient-4" x1="465.61" y1="798.62" x2="465.61" y2="219.21" xlink:href="#linear-gradient"/><linearGradient id="linear-gradient-5" x1="509.59" y1="792.58" x2="509.59" y2="0" xlink:href="#linear-gradient"/><linearGradient id="linear-gradient-6" x1="209.02" y1="191.11" x2="209.02" y2="84.24" xlink:href="#linear-gradient"/><linearGradient id="linear-gradient-7" x1="209.17" y1="333.13" x2="209.17" y2="187.4" xlink:href="#linear-gradient"/><linearGradient id="linear-gradient-8" x1="518.75" y1="1784.87" x2="518.75" y2="786.95" gradientTransform="translate(821.95 448.05) rotate(180) scale(1.18 0.15)" xlink:href="#linear-gradient"/><linearGradient id="linear-gradient-9" x1="209.09" y1="419.99" x2="209.09" y2="331.17" xlink:href="#linear-gradient"/><linearGradient id="linear-gradient-10" x1="230.43" y1="495.52" x2="230.43" y2="387.03" gradientTransform="matrix(1, 0, 0, -0.86, 0, 752.45)" xlink:href="#linear-gradient"/><linearGradient id="linear-gradient-11" x1="209.09" y1="741.29" x2="209.09" y2="408.66" xlink:href="#linear-gradient"/><linearGradient id="linear-gradient-12" x1="529.78" y1="496.73" x2="529.78" y2="388.24" gradientTransform="translate(1107.29 752.45) rotate(180) scale(1.74 0.86)" xlink:href="#linear-gradient"/><linearGradient id="linear-gradient-13" x1="209.17" y1="592.78" x2="209.17" y2="418.03" xlink:href="#linear-gradient"/><linearGradient id="linear-gradient-14" x1="251.98" y1="749.61" x2="251.98" y2="594.17" xlink:href="#linear-gradient"/><linearGradient id="linear-gradient-15" x1="221.23" y1="148.78" x2="221.23" y2="74" xlink:href="#linear-gradient"/><linearGradient id="linear-gradient-16" x1="276.66" y1="106.82" x2="395.84" y2="106.82" xlink:href="#linear-gradient"/><linearGradient id="linear-gradient-17" x1="252.21" y1="111.39" x2="395.84" y2="111.39" xlink:href="#linear-gradient"/><linearGradient id="linear-gradient-18" x1="432.19" y1="162.83" x2="432.19" y2="72.19" xlink:href="#linear-gradient"/><linearGradient id="linear-gradient-19" x1="471.45" y1="162.83" x2="471.45" y2="77.13" xlink:href="#linear-gradient"/><linearGradient id="linear-gradient-20" x1="554.29" y1="167.86" x2="554.29" y2="92.91" xlink:href="#linear-gradient"/><linearGradient id="linear-gradient-21" x1="484.75" y1="144.52" x2="558.4" y2="144.52" xlink:href="#linear-gradient"/><linearGradient id="linear-gradient-22" x1="571.41" y1="243.33" x2="571.41" y2="138.94" xlink:href="#linear-gradient"/><linearGradient id="linear-gradient-23" x1="621.87" y1="243.33" x2="621.87" y2="138.94" xlink:href="#linear-gradient"/><linearGradient id="linear-gradient-24" x1="613.77" y1="213.98" x2="677.79" y2="277.99" xlink:href="#linear-gradient"/><linearGradient id="linear-gradient-25" x1="616.57" y1="224.76" x2="653.11" y2="288.05" xlink:href="#linear-gradient"/><linearGradient id="linear-gradient-26" x1="662.63" y1="494.71" x2="662.63" y2="263.8" xlink:href="#linear-gradient"/><linearGradient id="linear-gradient-27" x1="611.83" y1="492.92" x2="713.44" y2="492.92" xlink:href="#linear-gradient"/><linearGradient id="linear-gradient-28" x1="568.17" y1="591.05" x2="668.1" y2="591.05" xlink:href="#linear-gradient"/><linearGradient id="linear-gradient-29" x1="496" y1="743.86" x2="496" y2="586.54" xlink:href="#linear-gradient"/><linearGradient id="linear-gradient-30" x1="290.59" y1="749.27" x2="290.59" y2="675.13" xlink:href="#linear-gradient"/><linearGradient id="linear-gradient-31" x1="402.91" y1="603.55" x2="402.91" y2="748.23" xlink:href="#linear-gradient"/></defs><title>logo-midipro</title><rect class="cls-1" x="1.38" width="798.62" height="800"/><polyline class="cls-2" points="4.98 417.35 4.98 792.58 638.2 0"/><polygon class="cls-3" points="800 663.19 1.38 130 164.73 622.7 800 0 800 663.19"/><polyline class="cls-4" points="800 219.21 800 574 131.22 798.62"/><polyline class="cls-5" points="800 417.35 800 792.58 219.18 0"/><path class="cls-6" d="M165.82,84.24V191.11h86.41q0-21.17,0-42.33Z"/><path class="cls-7" d="M166.49,187.4h85.36V333.13Z"/><path class="cls-8" d="M251.68,333.13H166.33V187.4Z"/><polygon class="cls-9" points="166.49 331.17 251.68 331.17 209.01 419.99 166.49 331.17"/><polygon class="cls-10" points="209.17 419.07 251.68 325.62 251.68 419.07 209.17 419.07"/><polygon class="cls-11" points="166.49 408.66 251.68 594.17 166.49 741.29 166.49 408.66"/><polygon class="cls-12" points="209 418.03 166.49 324.57 166.49 418.03 209 418.03"/><path class="cls-13" d="M166.49,418h85.36V592.78Q209.18,505.41,166.49,418Z"/><path class="cls-14" d="M251.73,675.13c.12-38.86,0-44,0-81-28,46-57.2,101.09-85.19,147.12,47.08,6.71,123.87,8.33,170.14,8.32,10.69,0-85-32.43-84.9-74.48"/><path class="cls-15" d="M276.66,74C236.76,76.08,209,79.38,165.8,85.28c25,25.68,51,43,86.41,63.5C260.54,124.14,268.33,98.64,276.66,74Z"/><path class="cls-16" d="M276.66,74.7c39.55-2.78,74.77-3.82,102.35-2.51,5,23,11.8,46.8,16.83,69.82C347.09,124.49,315.87,97.31,276.66,74.7Z"/><path class="cls-17" d="M252.21,148.78C297,138.54,360.62,139.23,395.84,142L276.66,74C268.39,98.29,260.48,124.49,252.21,148.78Z"/><path class="cls-18" d="M379,72.19c5.49,23.25,11.34,46.57,16.83,69.82,28.57,6.82,61,14,89.52,20.82l-50.48-85.7C408.33,74,401.74,73,379,72.19Z"/><path class="cls-19" d="M434.88,77.13c15.61,28.33,23.59,59.67,50.48,85.7,7.4-23.08,15.27-46.84,22.67-69.92C495.31,89.33,472.26,81.29,434.88,77.13Z"/><path class="cls-20" d="M508,92.91c16.77,24.64,37.24,50.31,54,75,12.84-9.25,25.68-19.66,38.52-28.92C581.13,125.18,550,104.25,508,92.91Z"/><path class="cls-21" d="M508,92.91c-10.35,22.56-16.63,48.23-23.28,69.92,18.31,8.93,30.28,11.79,57.51,33.31,6.54-8.33,13.19-23.77,16.14-34.18C542,138.94,524.45,115.93,508,92.91Z"/><path class="cls-22" d="M542.26,196.14c4.86-9.43,11.45-25.39,15.62-36,15.5-7.17,27.39-12.18,42.68-21.17-6.48,33.66-9.66,70.73-16.14,104.39C571.06,224.41,559.15,210.07,542.26,196.14Z"/><path class="cls-23" d="M584.42,243.33c6.71-33.72,9.43-70.67,16.14-104.39,19.66,15.73,42.44,37.13,58.75,61.88C645.66,210.54,598.07,233.61,584.42,243.33Z"/><path class="cls-24" d="M584.42,243.33c24.35-15.91,50.54-26.61,74.89-42.51,16.08,21.4,23.94,41.17,32.67,63C657.11,258.71,619.29,248.41,584.42,243.33Z"/><path class="cls-25" d="M584.42,243.33c35.45,4.56,73,14.39,107.56,20.47-26.37,13.35-52.33,33.48-78.7,46.84C607.26,284.44,593.71,258.5,584.42,243.33Z"/><path class="cls-26" d="M692,263.8c-26.52,12.33-52.18,34.5-78.7,46.84,9.71,33,16.42,125.77-1.45,184.07,33.62-31.46,68-62.92,101.61-94.38C712.55,380.39,715.06,324.86,692,263.8Z"/><path class="cls-27" d="M713.44,399.31c-33,29-68.61,66.4-101.61,95.4,16.3,28.37,33.39,56.84,56.27,91.83C677.58,566.88,711.36,513,713.44,399.31Z"/><path class="cls-28" d="M611.83,494.71c20.36,22.51,41.26,68.51,56.27,91.83-44.64,75.41-85.35,95-93,100.85-1.54-32.07-5.4-68.78-6.94-100.85C578.12,573.58,597.32,549.07,611.83,494.71Z"/><path class="cls-29" d="M568.17,586.54c3.39,29,3.55,71.86,6.94,100.85-33.54,21.28-84.2,45.8-158.22,56.47C457,697,528.08,633.42,568.17,586.54Z"/><path class="cls-30" d="M219.35,741.75c13-21.9,19.43-44.72,32.38-66.62,34.55,24.06,81.66,42.85,110.11,73.1C306.67,752.16,266.85,743.91,219.35,741.75Z"/><path class="cls-31" d="M252.82,675.89c25,21.89,84,50.44,109,72.34,12.72,0,42.1-3.14,55.05-4.37C448.81,713.3,524.31,635.93,553,603.55,450.43,700.34,320.9,680.45,252.82,675.89Z"/></svg>