<svg id="Layer_1" data-name="Layer 1" xmlns="http://www.w3.org/2000/svg" viewBox="0 0 283.46 283.46"><defs><style>.cls-1{fill:#e64f92;}.cls-2{fill:#fff;stroke:#e74e92;stroke-miterlimit:10;stroke-width:6px;}</style></defs><title>mail</title><circle class="cls-1" cx="141.28" cy="143.17" r="136.47"/><path class="cls-2" d="M53.05,202.88a10,10,0,0,1-10-10V89.39a10.3,10.3,0,0,1,4.86-8.89,10,10,0,0,1,11.8,1.12l76.81,68.64a8.41,8.41,0,0,0,11.18,0L225,81.6a10,10,0,0,1,11.8-1.09,10.32,10.32,0,0,1,4.84,8.9V192.88a10,10,0,0,1-10,10Z"/><path class="cls-2" d="M53.27,202.88A11,11,0,0,1,45,199.46a7.52,7.52,0,0,1,1-11s60-47.31,61.86-48.77c2.78-2.13,4.76.71,6.66,2.15l23.67,17.85a6.59,6.59,0,0,0,7.7,0l21.92-16.76c1.9-1.45,4.39-3.89,6.71-2.18l64,47.54a7.55,7.55,0,0,1,1.71,10.57,10.85,10.85,0,0,1-8.84,4Z"/><path class="cls-2" d="M148.2,170.21l87.72-76.06c5.55-4.81,2-13.59-5.54-13.59H56.14c-7.53,0-11.09,8.84-5.49,13.63l89,76A6.79,6.79,0,0,0,148.2,170.21Z"/></svg>