<svg id="Layer_1" data-name="Layer 1" xmlns="http://www.w3.org/2000/svg" viewBox="0 0 283.46 283.46"><defs><style>.cls-1{fill:#51b4e6;}</style></defs><title>twt</title><path class="cls-1" d="M4.41,232.42c30.09,4.28,57.31-3.3,82.94-22.85-27.68-4.73-44.86-18.16-51.76-40.1,11.47,1.94,19.12,1.78,23.78,0C29.75,156,15.29,137.54,16.47,114c13.38,5.8,20.82,6.78,23.32,3.73C17.64,100,11.79,75.6,22.53,44.49,53.47,77.66,89.8,101.61,140,101.85c-7-62.95,60.16-89.53,96.53-51.29,12.11-1.07,24-5.42,35.91-12.59-1.5,11.29-11.11,22-22.39,30.31,9.16-.53,19.21-2.88,30.37-7.46-14.55,21.26-26.73,28.35-28,28C254.76,232.89,109.27,297.24,4.41,232.42Z"/></svg>